<?xml version="1.0" encoding="utf-8"?>
<!-- Generator: Adobe Illustrator 26.4.0, SVG Export Plug-In . SVG Version: 6.00 Build 0)  -->
<svg version="1.1" id="Layer_1" xmlns="http://www.w3.org/2000/svg" xmlns:xlink="http://www.w3.org/1999/xlink" x="0px" y="0px"
	 viewBox="0 0 99.9 100.1" style="enable-background:new 0 0 99.9 100.1;" xml:space="preserve">
<style type="text/css">
	.st0{fill:#098200;}
</style>
<g id="Logo">
	<path class="st0" d="M23.7,52.5H19c0.7,9.6,5.9,18,13.4,23.2l2.4-4.1C28.6,67.2,24.4,60.3,23.7,52.5 M76.2,52.5
		c-0.7,7.9-4.9,14.8-11,19.1l2.4,4.1c7.5-5.2,12.7-13.6,13.4-23.2C81,52.5,76.2,52.5,76.2,52.5z M67.5,24.4l-2.4,4.1
		c6.1,4.3,10.3,11.2,11,19.1h4.7C80.2,38,75,29.6,67.5,24.4 M32.3,24.4C24.8,29.6,19.7,38,18.9,47.6h4.7c0.7-7.9,4.9-14.8,11-19.1
		L32.3,24.4L32.3,24.4z M49.9,18.9c-4.8,0-9.3,1.1-13.4,3l2.4,4.1c3.4-1.6,7.1-2.4,11-2.4s7.7,0.9,11,2.4l2.4-4.1
		C59.3,20,54.7,18.9,49.9,18.9 M60.9,74c-3.4,1.6-7.1,2.4-11,2.4s-7.7-0.9-11-2.4l-2.4,4.1c4.1,2,8.6,3,13.4,3s9.3-1.1,13.4-3
		L60.9,74z M28.6,47.6h4.7c1.1-7.3,6.9-13.1,14.2-14.2v-4.7C37.6,29.8,29.7,37.7,28.6,47.6 M66.6,52.5c-1.1,7.3-6.9,13.1-14.2,14.2
		v4.7c9.9-1.1,17.8-9,18.9-18.9C71.3,52.5,66.6,52.5,66.6,52.5z M52.4,28.7v4.7c7.3,1.1,13.1,6.9,14.2,14.2h4.7
		C70.2,37.7,62.3,29.8,52.4,28.7 M33.3,52.5h-4.7c1.1,9.9,9,17.8,18.9,18.9v-4.7C40.2,65.6,34.4,59.8,33.3,52.5 M56.7,52.5
		c-1,2.8-3.7,4.8-6.8,4.8s-5.8-2-6.8-4.8h-4.9c1.1,5.4,5.9,9.5,11.7,9.5s10.6-4.1,11.7-9.5H56.7z M49.9,38.1
		c-5.7,0-10.6,4.1-11.7,9.5h4.9c1-2.8,3.7-4.8,6.8-4.8s5.8,2,6.8,4.8h4.9C60.5,42.2,55.7,38.1,49.9,38.1"/>
</g>
<g id="Guide">
</g>
</svg>
