<?xml version="1.0" encoding="UTF-8"?><svg id="Isolation_Mode" xmlns="http://www.w3.org/2000/svg" viewBox="0 0 400 400"><defs><style>.cls-1{fill:#f39c0f;}.cls-2{fill:none;stroke:#f39c0f;stroke-miterlimit:10;stroke-width:18.49px;}</style></defs><circle class="cls-2" cx="200" cy="200" r="177.94"/><rect class="cls-1" x="191.27" y="16.68" width="7.86" height="25.75" transform="translate(390.4 59.11) rotate(180)"/><rect class="cls-1" x="161.75" y="20.1" width="7.86" height="25.75" transform="translate(334.56 36.69) rotate(170)"/><rect class="cls-1" x="133.27" y="28.6" width="7.86" height="25.75" transform="translate(280.3 33.53) rotate(160)"/><rect class="cls-1" x="106.69" y="41.92" width="7.86" height="25.75" transform="translate(233.82 46.93) rotate(150)"/><rect class="cls-1" x="82.84" y="59.64" width="7.86" height="25.75" transform="translate(199.84 72.3) rotate(140)"/><rect class="cls-1" x="62.42" y="81.24" width="7.86" height="25.75" transform="translate(181.09 103.79) rotate(130)"/><rect class="cls-1" x="46.06" y="106.06" width="7.86" height="25.75" transform="translate(177.99 135.11) rotate(120)"/><rect class="cls-1" x="34.27" y="133.34" width="7.86" height="25.75" transform="translate(188.66 160.34) rotate(110)"/><rect class="cls-1" x="27.38" y="162.26" width="7.86" height="25.75" transform="translate(209.22 174.71) rotate(100)"/><rect class="cls-1" x="25.63" y="191.93" width="7.86" height="25.75" transform="translate(234.36 175.24) rotate(90)"/><rect class="cls-1" x="29.05" y="221.45" width="7.86" height="25.75" transform="translate(258.02 161.16) rotate(80)"/><rect class="cls-1" x="37.55" y="249.93" width="7.86" height="25.75" transform="translate(274.25 133.94) rotate(70)"/><rect class="cls-1" x="50.86" y="276.5" width="7.86" height="25.75" transform="translate(278.01 97.24) rotate(60)"/><rect class="cls-1" x="68.59" y="300.36" width="7.86" height="25.75" transform="translate(265.86 56.34) rotate(50)"/><rect class="cls-1" x="90.19" y="320.78" width="7.86" height="25.75" transform="translate(236.49 17.56) rotate(40)"/><rect class="cls-1" x="115.01" y="337.13" width="7.86" height="25.75" transform="translate(190.94 -12.58) rotate(30)"/><rect class="cls-1" x="142.29" y="348.93" width="7.86" height="25.75" transform="translate(132.56 -28.19) rotate(20)"/><rect class="cls-1" x="171.2" y="355.81" width="7.86" height="25.75" transform="translate(66.68 -24.81) rotate(10)"/><rect class="cls-1" x="200.87" y="357.57" width="7.86" height="25.75"/><rect class="cls-1" x="230.4" y="354.14" width="7.86" height="25.75" transform="translate(-60.17 46.27) rotate(-10)"/><rect class="cls-1" x="258.88" y="345.65" width="7.86" height="25.75" transform="translate(-106.77 111.51) rotate(-20)"/><rect class="cls-1" x="285.45" y="332.33" width="7.86" height="25.75" transform="translate(-133.83 190.94) rotate(-30)"/><rect class="cls-1" x="309.31" y="314.6" width="7.86" height="25.75" transform="translate(-137.22 277.96) rotate(-40)"/><rect class="cls-1" x="329.72" y="293" width="7.86" height="25.75" transform="translate(-115.13 364.86) rotate(-50)"/><rect class="cls-1" x="346.08" y="268.19" width="7.86" height="25.75" transform="translate(-68.4 443.65) rotate(-60)"/><rect class="cls-1" x="357.88" y="240.91" width="7.86" height="25.75" transform="translate(-.42 506.97) rotate(-70)"/><rect class="cls-1" x="364.76" y="211.99" width="7.86" height="25.75" transform="translate(83.21 548.91) rotate(-80)"/><rect class="cls-1" x="366.51" y="182.32" width="7.86" height="25.75" transform="translate(175.24 565.64) rotate(-90)"/><rect class="cls-1" x="363.09" y="152.8" width="7.86" height="25.75" transform="translate(267.59 555.89) rotate(-100)"/><rect class="cls-1" x="354.59" y="124.32" width="7.86" height="25.75" transform="translate(352.22 521.02) rotate(-110)"/><rect class="cls-1" x="341.28" y="97.74" width="7.86" height="25.75" transform="translate(422.01 464.89) rotate(-120)"/><rect class="cls-1" x="323.55" y="73.89" width="7.86" height="25.75" transform="translate(471.52 393.4) rotate(-130)"/><rect class="cls-1" x="301.95" y="53.47" width="7.86" height="25.75" transform="translate(497.55 313.79) rotate(-140)"/><rect class="cls-1" x="277.14" y="37.12" width="7.86" height="25.75" transform="translate(499.48 233.82) rotate(-150)"/><rect class="cls-1" x="249.86" y="25.32" width="7.86" height="25.75" transform="translate(479.2 160.88) rotate(-160)"/><rect class="cls-1" x="220.94" y="18.44" width="7.86" height="25.75" transform="translate(440.88 101.2) rotate(-170)"/><path class="cls-1" d="m199.04,59.61c-78.46,0-142.07,63.6-142.07,142.07s63.6,142.07,142.07,142.07,142.07-63.6,142.07-142.07S277.5,59.61,199.04,59.61Zm104.47,139.86s-1.49.11-2.29.98c-.8.87-4.37,8.01-16.88,2.55,0,0-5.09,6.04-10.55,6.33-1.49.08-3.44.19-5.53.66-2.18.55-4.29,1.37-6.12,2.66-.11.08-.21.16-.32.24-.14.1-.28.21-.41.32-.14.11-.28.23-.42.35-.11.1-.23.2-.34.3-.11.11-.23.22-.34.33-.15.15-.3.29-.44.44-.06.07-.13.14-.19.21-.2.22-.39.44-.58.67,0,0-.01.02-.02.02-.64.79-1.2,1.63-1.71,2.52-.04.06-.07.13-.11.19-.11.19-.21.38-.31.57-1.22,2.38-2.19,5.37-2.76,9.13.03.12.08.39.06.76.03,1.01-.35,3.08-3.58,5.05-1.26.77-3.37,2.16-5.85,3.77-.28.26-.56.52-.86.76-.8.63-1.7,1.1-2.64,1.51-5.68,3.64-12,7.48-14.42,7.83.04.31.11.95.1,1.78.01,1.91-.36,4.98-2.53,7.29v10.15s.97,5.19,2.8,8.08c.14.12.29.23.44.31.95.51,1.46,1.08,1.67,1.67.9.63,1.23,1.33,1.19,2.02.07,1.02-.69,2.06-1.63,2.88-1.47,1.27-5.03,3.32-6.7,3.66.03.07.06.13.09.2.81.56,2.15,1.69,2.05,3.08.02.49-.13,1.02-.57,1.57-2.07,2.62-4.04,4.59-6.22,4.48s-8.84,0-8.84,0c0,0-1.85-.4-3.29-1.39-1.39-.56-3.18-1.59-3.38-3.28-.34-2.8-.34-4.37-.34-4.37,0,0-1.48-1.4-1.52-3.65-.08-1.28.31-2.86,1.74-4.63,0,0,1.12-13.19,1.14-16.22,0-.17-.01-.29-.02-.35-.2-.91-1.88-13.78-3.69-18.35-4.4-2.58-17.56-5.21-24.38-3.87-7.75,1.53-22.38-4.15-22.38-4.15,0,0-.25,1.24-.27,3.25,0,4.55,1.21,12.8,8.78,20,0,0,3.93,3.38,4.59,5.68.23.81,1.03,1.49,1.86,2.16.46.1.82.43,1.04.87.69.61,1.2,1.25,1.14,2,.03.46-.14.96-.66,1.52-2.51,2.73-5.24,6.22-16.16,2.73,0,0-.29-.27-.63-.74-.77-.19-1.56-.41-2.43-.69,0,0-1.57-1.46-1.9-3.58-.3-1.87-2.58-2.79-2.44-5.49,0-.43.06-.91.2-1.45.03-.11.05-.23.05-.35-.06-4.43-10.47-17.9-10.47-17.9,0,0-1.69-1.79-1.6-4.43,0-.23,0-.47.03-.72.14-1.24.18-3.03.18-4.67,0-2.12-.07-3.95-.07-3.95l-.28-.3c-2.75,2.02-13.04,10.26-15.03,21.76l.21,8.98,7.4,11.91c.14-.06.28-.11.42-.17.24.39.36.81.4,1.25.34.53.67,1.25.62,2.02.03.94-.46,1.97-2.19,2.79-3.15,1.49-6.64,3.84-11.08,2.54,0,0,0,0,0,0-1.19.02-2.34-.39-3.29-1.07-.25-.05-.5-.11-.75-.19,0,0,0,0,0,0-1.44.03-2.82-.57-3.88-1.51l-1.77-.98v-.91s-.07-.06-.11-.1l-.07-1.6c-.03-.24-.04-.47-.03-.71l-.12-2.83s-2.24-2.13-2.13-5.6c0-.02,0-.04,0-.06,0-.06,0-.11,0-.17.02-.51.02-1.3.02-2.27,0-5.78-.25-17.55-.25-17.55,0,0-1.88-1.94-1.8-5.18,0-1.48.39-3.24,1.58-5.23,2.29-3.82,3.33-9.84,3.34-15.57,0-.13,0-.25,0-.38l-.14-3.12c-.17-2.14-.49-4.16-.95-5.9-1.13-4.24-3.22-11.34-4.18-18.01-.21-.9-.43-1.8-.64-2.7.06-.62.13-1.23.19-1.85-.01-.29-.03-.58-.04-.86-.08-2.62.15-5.01.85-6.92,1.29-3.52,2.52-5.22,3.49-6.37.51-.87,1.06-1.8,1.66-2.82.15-.26.29-.49.42-.71,0-.06.02-.12.02-.18.17-1.75,2.02-3.82,4.86-5.29.93-.52,2.12-1,3.6-1.34,1.92-.48,4.05-.68,6.32-.42,2.85.32,5.11.05,7.15-.34.27-.07.55-.14.8-.22.22-.03.44-.05.66-.08,3.02-.65,5.74-1.31,9.53-.26,6.83,1.9,36.95,5.82,47.92,2.8,8.06-2.22,16.31-3.51,24.62-4.25.48-.04.96-.09,1.43-.18.02,0,.05,0,.07-.01.71-.16,1.39-.44,2.06-.72,0-.41,5.54-2.32,6.16-2.59,1.46-.61,2.95-1.17,4.43-1.74,2.79-1.06,5.6-2.08,8.43-3.03,6.18-2.09,12.48-3.93,18.89-5.17,1.5-.29,3.2-.61,5-.88-.51-6.73.75-15.22,2.25-18.15,0,0,4.14-10.41,3.69.9,0,.21,0,.41,0,.62.2.69.3,1.92.25,3.91.26,1.89.69,3.7,1.23,5.4,1.63-5.35,4.14-10.56,5.87-12.46,0,0,6.74-8.9,3.34,1.8.97-.44,1.42.46-.06,5.09-.63,1.98-.98,4-1.13,5.97.23,3.51.92,6.6,1.51,8.71.76.5,1.47,1.08,2.09,1.78,0,0,7.39,8.51,9.85,10.08,2.31,1.47,5.42,6.89,5.23,10.15,0,.29-.02.57-.08.83-.01.05,0,.11-.01.16.33,3.5,12.55,12.82,12.55,12.82,0,0,3.16,2.71,3.06,5.91.01.77-.15,1.57-.59,2.37,0,.06,0,.13,0,.21,0,.72-.03,3.31-.89,4.71-.12,1.73-.6,4.36-2.36,4.22Z"/></svg>