<svg xmlns="http://www.w3.org/2000/svg" xmlns:xlink="http://www.w3.org/1999/xlink" version="1.1" width="256" height="256" viewBox="0 0 256 256" xml:space="preserve">

<defs>
</defs>
<g style="stroke: none; stroke-width: 0; stroke-dasharray: none; stroke-linecap: butt; stroke-linejoin: miter; stroke-miterlimit: 10; fill: none; fill-rule: nonzero; opacity: 1;" transform="translate(1.4065934065934016 1.4065934065934016) scale(2.81 2.81)" >
	<path d="M 45 89.998 c -0.867 0 -1.734 -0.137 -2.559 -0.41 c -19.586 -6.506 -32.241 -22.036 -32.241 -39.566 V 18.234 c 0 -2.718 1.936 -5.043 4.603 -5.529 l 0 0 c 10.332 -1.879 19.341 -5.76 26.775 -11.534 c 2.014 -1.564 4.828 -1.564 6.843 0 c 7.435 5.774 16.442 9.655 26.775 11.534 c 2.666 0.485 4.602 2.811 4.602 5.529 v 31.788 c 0 17.53 -12.654 33.061 -32.238 39.566 C 46.734 89.861 45.867 89.998 45 89.998 z M 15.519 16.641 c -0.764 0.139 -1.318 0.809 -1.318 1.593 v 31.788 c 0 15.776 11.58 29.817 29.5 35.77 c 0.837 0.279 1.76 0.277 2.6 0 c 17.919 -5.952 29.498 -19.993 29.498 -35.77 V 18.234 c 0 -0.784 -0.555 -1.455 -1.318 -1.593 c -10.972 -1.996 -20.564 -6.138 -28.512 -12.31 c -0.57 -0.441 -1.366 -0.442 -1.937 0 C 36.084 10.503 26.491 14.645 15.519 16.641 L 15.519 16.641 z" style="stroke: none; stroke-width: 1; stroke-dasharray: none; stroke-linecap: butt; stroke-linejoin: miter; stroke-miterlimit: 10; fill: rgb(0,0,0); fill-rule: nonzero; opacity: 1;" transform=" matrix(1 0 0 1 0 0) " stroke-linecap="round" />
	<path d="M 40.439 58.572 c -0.613 0 -1.191 -0.281 -1.571 -0.762 l -9.121 -11.572 c -0.684 -0.868 -0.535 -2.125 0.333 -2.809 c 0.868 -0.685 2.126 -0.534 2.809 0.333 l 7.55 9.58 l 16.672 -21.152 c 0.685 -0.869 1.94 -1.016 2.809 -0.333 c 0.867 0.684 1.017 1.941 0.332 2.809 L 42.01 57.811 C 41.631 58.291 41.052 58.572 40.439 58.572 z" style="stroke: none; stroke-width: 1; stroke-dasharray: none; stroke-linecap: butt; stroke-linejoin: miter; stroke-miterlimit: 10; fill: rgb(0,0,0); fill-rule: nonzero; opacity: 1;" transform=" matrix(1 0 0 1 0 0) " stroke-linecap="round" />
</g>
</svg>