<svg width="242" height="40" viewBox="0 0 242 40" fill="none" xmlns="http://www.w3.org/2000/svg">
<path d="M41.4902 6.39496C41.4368 6.55324 41.3121 6.68054 41.1524 6.74029C40.9541 6.81343 40.7169 6.88071 40.4282 6.95106L40.2666 6.98791L40.24 6.99489C40.0437 7.0376 39.8624 7.07389 39.7022 7.10237C39.6409 7.11242 39.5785 7.11409 39.5176 7.10432C39.3327 7.07529 39.1705 6.95357 39.091 6.77714C38.2931 4.94719 38.2198 3.20881 38.8717 1.61029C38.8759 1.60219 38.8799 1.59438 38.8813 1.58628C39.0745 1.11644 39.3335 0.659721 39.6569 0.227568C39.783 0.0553212 39.9911 -0.0250793 40.193 0.00674582C40.2425 0.0145626 40.2915 0.0279627 40.339 0.0494585C40.579 0.160847 40.7077 0.421311 40.6528 0.678425C40.0761 3.26967 40.8925 5.07142 41.4329 5.91674C41.5238 6.05828 41.544 6.23388 41.4902 6.39496Z" fill="black"/>
<path d="M40.9617 6.21351C40.7782 6.28079 40.5558 6.34444 40.2999 6.40586L40.1791 6.43489C40.1584 6.4402 40.141 6.44299 40.1203 6.44829C39.9327 6.48933 39.7573 6.52395 39.6057 6.55103C38.7512 4.59629 38.9003 3.00866 39.4004 1.79874L39.4007 1.79595C39.5945 1.32332 39.8437 0.91043 40.1064 0.556165C39.491 3.31937 40.3558 5.26462 40.9617 6.21351Z" fill="black"/>
<path d="M40.9617 6.21351C40.7782 6.28079 40.5558 6.34444 40.2999 6.40586L40.1791 6.43489C40.1584 6.4402 40.141 6.44299 40.1203 6.44829C39.9327 6.48933 39.7573 6.52395 39.6057 6.55103C38.7512 4.59629 38.9003 3.00866 39.4004 1.79874L39.4007 1.79595C39.5945 1.32332 39.8437 0.91043 40.1064 0.556165C39.491 3.31937 40.3558 5.26462 40.9617 6.21351Z" fill="white"/>
<path d="M40.1199 6.44817C39.9322 6.48921 39.7568 6.52382 39.6052 6.5509C38.7507 4.59589 38.8998 3.00854 39.3999 1.79862C39.3216 2.22156 39.2808 2.67577 39.302 3.15119L39.3971 5.34238L39.6589 4.11739C39.6989 4.93759 39.8186 5.84684 40.1199 6.44817Z" fill="#D1CFCF"/>
<path d="M47.8926 15.0658C47.8479 14.8481 47.6688 14.6694 47.4787 14.5382L47.3864 14.4712C47.2969 14.407 47.2074 14.34 47.1206 14.2702C46.8437 14.0497 46.5836 13.8096 46.3515 13.5416L44.1978 11.0319C44.1978 11.0319 44.044 9.36801 42.7686 8.28763C41.496 7.20725 41.4456 6.67404 41.4456 6.67404C41.0876 6.02916 40.1395 5.64391 40.1395 5.64391C39.6948 5.52666 39.2249 5.47641 38.7746 5.46244C37.6166 5.43174 36.6069 5.65228 36.6069 5.65228L36.6153 5.66066C36.0895 5.80582 35.5916 5.94541 35.1162 6.07941H35.1134C35.0239 6.10453 34.9371 6.12687 34.8504 6.15199C34.5148 6.24691 34.196 6.33904 33.8883 6.42558C32.4674 6.82758 31.3095 7.17096 30.3669 7.4585C30.2215 7.50038 30.0816 7.54225 29.9474 7.58413C29.7041 7.6595 29.4747 7.73209 29.2593 7.79909C29.1587 7.82979 29.0608 7.8605 28.9657 7.89121C28.8902 7.91633 28.8146 7.93867 28.7419 7.96379C28.507 8.03917 28.2972 8.10896 28.1042 8.17038C27.7686 8.28484 27.4917 8.37976 27.2651 8.46072C26.977 8.56401 26.7673 8.64497 26.619 8.70638C26.5855 8.71755 26.5575 8.73151 26.5295 8.74267C26.3114 8.83759 26.2666 8.87109 26.2666 8.87109L20.7287 9.88168C20.7287 9.88168 20.6979 9.88726 20.6308 9.89843C20.6056 9.90401 20.572 9.90681 20.5329 9.91239C20.4965 9.91797 20.4518 9.92356 20.3986 9.93193C20.3483 9.93752 20.2895 9.94589 20.2252 9.95147C20.1889 9.95706 20.1497 9.95985 20.1105 9.96264C20.0098 9.9766 19.8924 9.98776 19.7609 9.99893C19.705 10.0045 19.649 10.0073 19.5903 10.0101C19.4952 10.0185 19.3945 10.0268 19.2854 10.0352C19.2183 10.0408 19.1484 10.0436 19.0757 10.0464C18.961 10.0548 18.8379 10.0631 18.7065 10.0687C17.9149 10.1106 16.8521 10.1413 15.4564 10.1413H15.0732C14.3041 10.1385 13.602 10.1106 12.9699 10.0659C12.8804 10.0604 12.7909 10.052 12.7042 10.0464C12.6175 10.038 12.5308 10.0324 12.4469 10.0241C11.5715 9.94589 10.8471 9.83981 10.2737 9.73372C9.96042 9.6751 9.68912 9.61647 9.46537 9.56064C9.42621 9.55226 9.38705 9.5411 9.35069 9.53272C9.12973 9.47968 8.95632 9.42943 8.83326 9.39034C8.68782 9.34568 8.53678 9.31776 8.38574 9.30659C8.3326 9.30101 8.27946 9.29822 8.22632 9.29822C8.20394 9.29822 8.18157 9.29822 8.15919 9.30101C7.22501 9.33172 6.02233 9.69743 5.87409 9.71139C5.70347 9.72814 4.51757 9.71139 4.51757 9.71139C4.41967 9.7058 4.32458 9.70301 4.23508 9.70301C4.17075 9.70301 4.10642 9.7058 4.04488 9.7086C3.97216 9.71139 3.90224 9.71697 3.83791 9.72256C3.72603 9.73372 3.61975 9.74768 3.51906 9.77001C3.47151 9.77839 3.42396 9.78676 3.38201 9.80072C3.27293 9.82585 3.16944 9.85656 3.07434 9.89285C3.02959 9.9096 2.98764 9.92635 2.94569 9.94589C2.52614 10.1273 2.24365 10.3926 2.05066 10.6578C2.01151 10.7108 1.97794 10.7639 1.94717 10.8141C1.89963 10.8923 1.85767 10.9676 1.82411 11.043C1.81292 11.0654 1.80173 11.0905 1.79334 11.1128C1.76258 11.1826 1.73741 11.2468 1.71783 11.3054C1.70664 11.3445 1.69265 11.3808 1.68426 11.4115C1.67867 11.4283 1.67308 11.4422 1.67028 11.4562C1.65909 11.4841 1.6535 11.5092 1.6479 11.5288C1.58637 11.7214 1.23116 12.1876 0.945867 12.5449C0.708127 12.8409 0.57947 13.2038 0.576673 13.5835C0.571079 14.3149 0.56828 15.4706 0.579468 15.5293C0.629813 15.7833 0.680161 16.029 0.730506 16.2691C0.747287 16.3472 0.761272 16.4282 0.778053 16.5063C0.847977 16.8246 0.912306 17.1317 0.973839 17.4192C1.03537 17.6984 1.09411 17.9636 1.14725 18.2065C1.16403 18.2707 1.17802 18.3321 1.1892 18.3907C1.1948 18.4103 1.20039 18.427 1.20319 18.4466C1.23955 18.6057 1.27311 18.7592 1.30668 18.8988C1.30947 18.9044 1.30947 18.9128 1.31227 18.9184C1.32066 18.9658 1.33185 19.0105 1.34304 19.0524V19.0579C1.37101 19.1724 1.39618 19.2785 1.41855 19.379C1.42135 19.3846 1.42135 19.3902 1.42415 19.3957C1.42974 19.4209 1.43533 19.4432 1.44093 19.4655V19.4683C1.44372 19.4823 1.44652 19.4934 1.44932 19.5046C1.45212 19.5242 1.45771 19.5409 1.4633 19.5577C1.4633 19.5688 1.4661 19.5772 1.4689 19.5856C1.49407 19.6944 1.51644 19.7866 1.53602 19.8703C1.54162 19.8927 1.54721 19.9122 1.55281 19.9345C1.60036 20.1383 1.62832 20.2472 1.62832 20.2472C1.62832 20.2472 1.61154 20.7916 1.61993 21.4058C1.62273 21.5286 1.62553 21.657 1.63112 21.7798C1.63672 21.9501 1.6451 22.1148 1.65909 22.2684C1.65909 22.2823 1.66189 22.2935 1.66189 22.3075C1.66748 22.3521 1.67028 22.394 1.67587 22.4359C1.68986 22.5476 1.70384 22.6481 1.72062 22.7346C1.72901 22.7765 1.73741 22.8183 1.74859 22.8546C1.93879 23.5414 1.78495 23.9378 1.78495 23.9378C1.78495 23.9378 1.42135 25.2918 0.973839 26.1851C0.529124 27.0785 0.752882 27.2487 0.752882 27.2487L1.14725 28.3487V33.3569L1.68147 33.9404V34.5937C1.76537 34.7472 1.81852 35.3307 1.81852 35.3307C1.85208 35.3614 1.88564 35.3921 1.922 35.4172C1.9248 35.42 1.9248 35.4228 1.9276 35.4228C1.94438 35.4368 1.96675 35.4479 1.98633 35.4619C2.03108 35.4926 2.07863 35.5205 2.12618 35.5428C2.21568 35.5875 2.31358 35.6238 2.40867 35.6517C2.44783 35.6629 2.48978 35.674 2.52894 35.6852C2.60446 35.702 2.67438 35.7159 2.74431 35.7271C2.81143 35.7383 2.87856 35.7466 2.9373 35.7522C3.04638 35.7606 3.13588 35.7634 3.19741 35.7634C3.25055 35.7634 3.27852 35.7606 3.27852 35.7606C4.3106 35.6405 4.98186 35.0738 4.98186 35.0738C4.91194 34.4904 4.26864 33.7701 4.26864 33.7701C4.26305 33.7003 4.26025 33.6445 4.25465 33.6026C4.25186 33.5859 4.24906 33.5719 4.24906 33.5607C4.24627 33.5384 4.24347 33.5189 4.23787 33.5021C4.23787 33.4937 4.23787 33.4882 4.23508 33.4826C4.22389 33.4379 4.20711 33.4184 4.18194 33.3988C4.17634 33.3932 4.16795 33.3877 4.15956 33.3849C4.11201 33.3542 4.0309 33.3151 3.89665 33.1671C3.5694 32.8098 3.00442 31.3665 3.00442 31.3665V28.8791L3.43235 27.969C3.58898 26.4587 6.5985 23.8345 6.5985 23.8345C6.62087 23.8122 6.64045 23.7926 6.66282 23.7731C6.72715 23.7117 6.78589 23.6614 6.84463 23.6196C6.90616 23.5749 6.9649 23.5358 7.02363 23.5079C7.02363 23.5079 7.02643 23.5079 7.02922 23.5051C7.12712 23.4548 7.21382 23.4241 7.29214 23.413C7.32011 23.4074 7.34528 23.4046 7.36766 23.4046C7.38164 23.4018 7.39283 23.4018 7.40402 23.4018C7.57183 23.4018 7.66413 23.4744 7.66413 23.4744L7.70609 23.5302L8.21233 24.1723L8.53958 24.5883C8.53958 24.5883 8.45287 26.5452 8.45287 26.8384C8.45287 27.1287 8.69621 27.6089 8.69621 27.6089C9.53809 28.2426 11.1351 31.4698 11.1351 31.4698L11.1547 32.6869C11.7728 33.1867 11.9435 34.027 11.9435 34.027C12.1784 34.2224 12.5252 34.3201 12.8385 34.3647C12.9 34.3731 12.9587 34.3815 13.0175 34.3871C13.3391 34.4206 13.5937 34.4038 13.5937 34.4038C14.5586 34.3536 15.0732 33.597 15.0732 33.597C14.883 33.477 14.2314 32.6199 14.2314 32.6199C13.8873 31.8494 13.5937 31.7796 13.5937 31.7796C11.8735 30.6295 11.1883 27.7457 11.1883 27.7457C11.1519 27.6452 11.1184 27.5475 11.0932 27.4525C11.0596 27.3492 11.0345 27.2487 11.0121 27.151C10.9981 27.0896 10.9869 27.0282 10.9757 26.9696C10.9645 26.9109 10.9533 26.8523 10.9449 26.7937C10.9338 26.7099 10.9254 26.629 10.9198 26.5508C10.8666 25.892 11.0205 25.4369 11.1659 25.1689C11.1995 25.0991 11.2358 25.0433 11.2666 24.9986C11.2666 24.9959 11.2722 24.9931 11.2722 24.9875C11.2918 24.9596 11.3086 24.9372 11.3225 24.9177C11.3309 24.9093 11.3365 24.9009 11.3421 24.8926C11.3505 24.8842 11.3561 24.873 11.3673 24.8674C11.3673 24.8646 11.3701 24.8619 11.3729 24.8619C11.3757 24.8563 11.3813 24.8507 11.3841 24.8451C11.426 24.8619 11.468 24.8814 11.5071 24.9009C11.6358 24.9568 11.7561 25.0126 11.8595 25.0629C11.9295 25.0964 11.991 25.1243 12.0469 25.1494C12.1001 25.1745 12.1476 25.1913 12.1812 25.2024C12.2064 25.2108 12.2232 25.2164 12.2511 25.2248C12.2763 25.2304 12.2875 25.2331 12.2875 25.2331L12.2763 25.2666C13.2496 25.5765 14.6201 25.7999 15.3054 25.9004C15.3501 25.9059 15.3949 25.9143 15.434 25.9199C15.4928 25.9283 15.5431 25.9367 15.5879 25.9422C15.6075 25.945 15.627 25.9478 15.6438 25.9506C15.6606 25.9534 15.6746 25.9534 15.6858 25.9562C15.7137 25.9618 15.7249 25.9618 15.7249 25.9618C15.7249 25.9618 16.7542 25.8417 17.3947 25.8585L19.663 25.9283C19.663 25.9283 23.5648 26.6653 23.7214 27.4553C23.8752 28.2426 24.306 29.7529 24.306 29.7529C24.1493 31.7796 24.5968 32.0532 24.5968 32.0532L24.5633 34.3201C24.5297 35.4005 24.2892 36.4473 24.2892 36.4473C23.755 36.8577 23.8584 37.3574 23.8584 37.3574L24.3759 37.7846L24.3227 38.6779C24.5129 39.1748 25.1311 39.3479 25.1311 39.3479H26.7309C26.7589 39.3423 26.7868 39.3367 26.8148 39.3284C27.8413 39.1218 28.0706 38.4378 28.0706 38.4378C27.8133 38.1921 27.6259 37.9576 27.4889 37.7511C27.4749 37.7315 27.4637 37.712 27.4497 37.6896C27.3043 37.4607 27.2204 37.2681 27.1728 37.1257C27.1728 37.1201 27.17 37.1173 27.1672 37.1118C27.1141 36.9387 27.1085 36.841 27.1085 36.841C27.1616 36.8689 27.2288 36.894 27.3043 36.9136C27.3267 36.9191 27.349 36.9247 27.3742 36.9303V36.9331C27.4553 36.9498 27.5448 36.9638 27.6343 36.975C27.6511 36.9778 27.6707 36.9806 27.6875 36.9806C27.6959 36.9833 27.707 36.9833 27.7154 36.9861C27.9308 37.0057 28.1518 37.0141 28.3084 37.0141H28.3643C28.4678 37.0141 28.5349 37.0113 28.5349 37.0113C28.6133 36.9917 28.686 36.9694 28.7531 36.9443C28.7867 36.9331 28.8174 36.9219 28.8454 36.9108C28.8818 36.894 28.9125 36.8801 28.9461 36.8633C28.9825 36.8466 29.0132 36.8298 29.0468 36.8131C29.1195 36.7712 29.1866 36.7293 29.2454 36.6846C29.2733 36.6623 29.2985 36.64 29.3209 36.6204C29.374 36.5758 29.4188 36.5283 29.4551 36.4836C29.4719 36.4669 29.4859 36.4473 29.4999 36.4306C29.5111 36.4166 29.5195 36.4027 29.5307 36.3887C29.5362 36.3775 29.5446 36.3664 29.553 36.3552C29.5614 36.3413 29.5698 36.3301 29.5754 36.3161C29.5866 36.2994 29.5978 36.2798 29.6062 36.2631C29.6146 36.2463 29.6202 36.2324 29.6257 36.2184L29.6425 36.1849C29.6621 36.1319 29.6677 36.104 29.6677 36.104C28.9461 35.554 28.5853 34.3368 28.5182 34.0437C28.4482 33.7534 28.1741 33.3067 28.1741 33.3067L28.1909 30.6127L28.5238 30.1381C28.6972 29.8869 28.7867 29.591 28.7811 29.2867L28.7755 29.0745L28.7699 28.893V28.8679L28.7587 28.4157L28.7755 28.4101L29.2454 28.2817L30.1851 28.022C30.2467 27.9941 30.2998 27.969 30.353 27.9467C30.4061 27.9215 30.4564 27.8992 30.5012 27.8741C30.518 27.8657 30.5348 27.8545 30.5515 27.849C30.5655 27.8406 30.5795 27.8322 30.5963 27.8266C30.6271 27.8099 30.6522 27.7959 30.683 27.7792C30.7473 27.7457 30.8033 27.715 30.8508 27.687C30.8676 27.6787 30.8816 27.6703 30.8928 27.6619C30.9123 27.6507 30.9319 27.6368 30.9487 27.6256C31.1053 27.5279 31.1669 27.4721 31.1669 27.4721L34.4505 25.2164L35.0099 24.8311C35.1581 24.7306 35.27 24.5827 35.3203 24.4096L35.5357 23.6949C35.5441 23.6614 35.5525 23.6279 35.5581 23.5944C35.5888 23.4186 35.6168 23.2511 35.6504 23.0919C35.656 23.0612 35.6644 23.0305 35.6699 22.997C35.7874 22.4359 35.9329 21.978 36.0951 21.6068C36.1231 21.5453 36.151 21.4839 36.179 21.4253C36.3832 21.001 36.6097 20.6995 36.8391 20.4789C36.8559 20.4622 36.8726 20.4454 36.8922 20.4287C36.9817 20.3477 37.0712 20.2779 37.1607 20.2193C37.1971 20.1914 37.2334 20.169 37.267 20.1495C37.3034 20.1272 37.3369 20.1076 37.3705 20.0909C37.4041 20.0741 37.4404 20.0546 37.4768 20.0406C37.4991 20.0267 37.5187 20.0183 37.5383 20.0099C37.5495 20.0043 37.5635 19.9987 37.5775 19.9932C37.5831 19.9904 37.5914 19.9876 37.597 19.9848L37.6138 19.9764C37.6334 19.968 37.653 19.9597 37.6726 19.9541C38.0446 19.8089 38.3718 19.7531 38.576 19.5967C38.9899 19.2729 39.9269 19.1752 40.4947 19.1445C40.8135 19.1277 41.1184 19.0161 41.3701 18.8207L42.2596 18.1367L42.391 18.0334C42.4134 18.0111 42.4358 17.9859 42.4581 17.9664C42.4637 17.958 42.4721 17.9524 42.4777 17.9469C42.5448 17.8826 42.6092 17.838 42.6679 17.8017C42.8469 17.6984 43.0007 17.6928 43.0958 17.7068H43.0986C43.1546 17.7179 43.1937 17.7319 43.2077 17.7403C43.2133 17.7431 43.2161 17.7431 43.2161 17.7431C43.2161 17.7431 43.3895 17.8101 44.8327 18.0864C44.9754 18.1116 45.1068 18.1255 45.2299 18.1255C45.4229 18.1255 45.5879 18.0976 45.7362 18.0474C45.7501 18.0446 45.7669 18.039 45.7809 18.0334C45.7949 18.0278 45.8117 18.0222 45.8257 18.0139C45.9208 17.9776 46.0047 17.9329 46.0802 17.8799C46.1165 17.8575 46.1501 17.8324 46.1809 17.8073C46.2256 17.771 46.2676 17.7347 46.3067 17.6956C46.4578 17.5421 46.5557 17.3801 46.6088 17.2685C46.6228 17.2434 46.634 17.221 46.6424 17.2015C46.6619 17.154 46.6731 17.1261 46.6731 17.1261L47.35 16.7855C47.5262 16.6962 47.6437 16.5231 47.6549 16.3277L47.68 15.895C47.6856 15.828 47.6968 15.761 47.7164 15.6995C47.7416 15.6046 47.7891 15.5209 47.8534 15.4511C47.8562 15.4511 47.859 15.4483 47.859 15.4427C47.9066 15.3897 47.9374 15.2808 47.8926 15.0658Z" fill="black"/>
<path d="M47.859 15.4427C47.859 15.4483 47.8562 15.4511 47.8534 15.4511C47.7891 15.5209 47.7416 15.6046 47.7164 15.6996C47.6968 15.761 47.6856 15.828 47.68 15.895L47.6549 16.3277C47.6437 16.5231 47.5262 16.6962 47.35 16.7855L46.6731 17.1261C46.6731 17.1261 46.6619 17.154 46.6424 17.2015C46.634 17.221 46.6228 17.2434 46.6088 17.2685C46.5557 17.3801 46.4578 17.5421 46.3067 17.6956C46.2676 17.7347 46.2256 17.771 46.1809 17.8073C46.1501 17.8324 46.1165 17.8575 46.0802 17.8799C46.0047 17.9329 45.9208 17.9776 45.8257 18.0139C45.8117 18.0222 45.7949 18.0278 45.7809 18.0334C45.7669 18.039 45.7501 18.0446 45.7362 18.0474C45.5879 18.0976 45.4229 18.1255 45.2299 18.1255C45.1068 18.1255 44.9754 18.1116 44.8327 18.0864C43.3895 17.8101 43.2161 17.7431 43.2161 17.7431C43.2161 17.7431 43.2133 17.7431 43.2077 17.7403C43.1937 17.7319 43.1546 17.7179 43.0986 17.7068H43.0958C43.0007 17.6928 42.8469 17.6984 42.6679 17.8017C42.6092 17.838 42.5448 17.8826 42.4777 17.9469C42.4721 17.9524 42.4637 17.958 42.4581 17.9664C42.4358 17.9859 42.4134 18.0111 42.391 18.0334L42.2596 18.1367L41.3701 18.8207C41.1184 19.0161 40.8135 19.1277 40.4947 19.1445C39.9269 19.1752 38.9899 19.2729 38.576 19.5967C38.3718 19.7531 38.0446 19.8089 37.6726 19.9541C37.653 19.9597 37.6334 19.968 37.6138 19.9764L37.597 19.9848C37.5914 19.9876 37.5831 19.9904 37.5775 19.9932C37.5635 19.9987 37.5495 20.0043 37.5383 20.0099C37.5187 20.0183 37.4991 20.0267 37.4768 20.0406C37.4404 20.0546 37.4041 20.0741 37.3705 20.0909C37.3369 20.1076 37.3034 20.1272 37.267 20.1495C37.2334 20.169 37.1971 20.1914 37.1607 20.2193C37.0712 20.2779 36.9817 20.3477 36.8922 20.4287C36.8726 20.4454 36.8559 20.4622 36.8391 20.4789C36.6097 20.6995 36.3832 21.001 36.179 21.4253C36.151 21.4839 36.1231 21.5453 36.0951 21.6068C35.9329 21.978 35.7874 22.4359 35.6699 22.997C35.6644 23.0305 35.656 23.0612 35.6504 23.0919C35.6168 23.2511 35.5888 23.4186 35.5581 23.5944C35.5525 23.6279 35.5441 23.6614 35.5357 23.6949L35.3203 24.4096C35.27 24.5827 35.1581 24.7306 35.0099 24.8311L34.4505 25.2164L31.1669 27.4721C31.1669 27.4721 31.1053 27.5279 30.9487 27.6256C30.9319 27.6368 30.9123 27.6507 30.8928 27.6619C30.8816 27.6703 30.8676 27.6787 30.8508 27.687C30.8033 27.715 30.7473 27.7457 30.683 27.7792C30.6522 27.7959 30.6271 27.8099 30.5963 27.8266C30.5795 27.8322 30.5655 27.8406 30.5515 27.849C30.5348 27.8545 30.518 27.8657 30.5012 27.8741C30.4564 27.8992 30.4061 27.9215 30.353 27.9467C30.2998 27.969 30.2467 27.9941 30.1851 28.022L29.2454 28.2817L28.7755 28.4101L28.7587 28.4157L28.7699 28.8679V28.893L28.7755 29.0745L28.7811 29.2867C28.7867 29.591 28.6972 29.8869 28.5238 30.1381L28.1909 30.6127L28.1741 33.3067C28.1741 33.3067 28.4482 33.7534 28.5182 34.0437C28.5853 34.3368 28.9461 35.554 29.6677 36.104C29.6677 36.104 29.6621 36.1319 29.6425 36.1849L29.6257 36.2184C29.6202 36.2324 29.6146 36.2463 29.6062 36.2631C29.5978 36.2798 29.5866 36.2994 29.5754 36.3161C29.5698 36.3301 29.5614 36.3413 29.553 36.3552C29.5446 36.3664 29.5362 36.3775 29.5307 36.3887C29.5195 36.4027 29.5111 36.4166 29.4999 36.4306C29.4859 36.4473 29.4719 36.4669 29.4551 36.4836C29.4188 36.5283 29.374 36.5758 29.3209 36.6204C29.2985 36.64 29.2733 36.6623 29.2454 36.6846C29.1866 36.7293 29.1195 36.7712 29.0468 36.8131C29.0132 36.8298 28.9825 36.8466 28.9461 36.8633C28.9125 36.8801 28.8818 36.894 28.8454 36.9108C28.8174 36.9219 28.7867 36.9331 28.7531 36.9443C28.686 36.9694 28.6133 36.9917 28.5349 37.0113C28.5349 37.0113 28.4678 37.0141 28.3643 37.0141H28.3084C28.1518 37.0141 27.9308 37.0057 27.7154 36.9861C27.707 36.9833 27.6987 36.9833 27.6903 36.9833H27.6875C27.6707 36.9806 27.6511 36.9778 27.6343 36.975C27.5448 36.9638 27.4553 36.9498 27.3742 36.9331C27.349 36.9275 27.3267 36.9219 27.3043 36.9136C27.2288 36.894 27.1616 36.8689 27.1085 36.841C27.1085 36.841 27.1141 36.9387 27.1672 37.1118C27.17 37.1173 27.1728 37.1201 27.1728 37.1257C27.2204 37.2681 27.3043 37.4607 27.4497 37.6896C27.4637 37.712 27.4749 37.7315 27.4889 37.7511C27.6259 37.9576 27.8133 38.1921 28.0706 38.4378C28.0706 38.4378 27.8413 39.1218 26.8148 39.3284C26.7868 39.3367 26.7589 39.3423 26.7309 39.3479H25.1311C25.1311 39.3479 24.5129 39.1748 24.3227 38.6779L24.3759 37.7846L23.8584 37.3574C23.8584 37.3574 23.755 36.8577 24.2892 36.4473C24.2892 36.4473 24.5297 35.4005 24.5633 34.3201L24.5968 32.0532C24.5968 32.0532 24.1493 31.7796 24.306 29.7529C24.306 29.7529 23.8752 28.2426 23.7214 27.4553C23.5648 26.6653 19.663 25.9283 19.663 25.9283L17.3947 25.8585C16.7542 25.8417 15.7249 25.9618 15.7249 25.9618C15.7249 25.9618 15.7137 25.9618 15.6858 25.9562C15.6746 25.9534 15.6606 25.9534 15.6438 25.9506C15.627 25.9478 15.6075 25.945 15.5879 25.9422C15.5431 25.9367 15.4928 25.9283 15.434 25.9199C15.3949 25.9143 15.3501 25.9059 15.3054 25.9004C14.6201 25.7999 13.2496 25.5765 12.2763 25.2667C11.8875 25.1438 11.5631 25.007 11.3729 24.8619C11.3701 24.8619 11.3673 24.8646 11.3673 24.8674C11.3561 24.873 11.3505 24.8842 11.3421 24.8926C11.3365 24.9009 11.3309 24.9093 11.3225 24.9177C11.3085 24.9372 11.2918 24.9596 11.2722 24.9875C11.2722 24.9931 11.2666 24.9959 11.2666 24.9986C11.2358 25.0433 11.1995 25.0991 11.1659 25.1689C11.0205 25.4369 10.8666 25.892 10.9198 26.5508C10.9254 26.629 10.9338 26.71 10.945 26.7937C10.9533 26.8523 10.9645 26.911 10.9757 26.9696C10.9869 27.0282 10.9981 27.0896 11.0121 27.151C11.0344 27.2487 11.0596 27.3492 11.0932 27.4525C11.1184 27.5475 11.1519 27.6452 11.1883 27.7457C11.1883 27.7457 11.8735 30.6295 13.5937 31.7796C13.5937 31.7796 13.8873 31.8494 14.2314 32.6199C14.2314 32.6199 14.883 33.477 15.0732 33.597C15.0732 33.597 14.5586 34.3536 13.5937 34.4038C13.5937 34.4038 13.3391 34.4206 13.0175 34.3871C12.9587 34.3815 12.9 34.3731 12.8385 34.3647C12.5252 34.3201 12.1784 34.2224 11.9435 34.027C11.9435 34.027 11.7728 33.1867 11.1547 32.6869L11.1351 31.4698C11.1351 31.4698 9.53808 28.2426 8.6962 27.6089C8.6962 27.6089 8.45287 27.1287 8.45287 26.8384C8.45287 26.5452 8.53957 24.5883 8.53957 24.5883L8.21233 24.1723L7.70609 23.5302L7.66413 23.4744C7.66413 23.4744 7.57183 23.4018 7.40402 23.4018C7.39283 23.4018 7.38164 23.4018 7.36765 23.4046C7.34528 23.4046 7.32011 23.4074 7.29214 23.413C7.21382 23.4241 7.12712 23.4548 7.02923 23.5051C7.02643 23.5079 7.02363 23.5079 7.02363 23.5079C6.96489 23.5358 6.90616 23.5749 6.84463 23.6196C6.78589 23.6614 6.72716 23.7117 6.66283 23.7731C6.64045 23.7926 6.62087 23.8122 6.59849 23.8345C6.59849 23.8345 3.58898 26.4587 3.43235 27.969L3.00442 28.8791V31.3665C3.00442 31.3665 3.56941 32.8098 3.89665 33.1671C4.0309 33.3151 4.11201 33.3542 4.15956 33.3849C4.16795 33.3877 4.17634 33.3932 4.18193 33.3988C4.20711 33.4184 4.22389 33.4379 4.23508 33.4826C4.23787 33.4882 4.23787 33.4937 4.23787 33.5021C4.24347 33.5189 4.24626 33.5384 4.24906 33.5607C4.24906 33.5719 4.25186 33.5859 4.25466 33.6026C4.26025 33.6445 4.26304 33.7003 4.26864 33.7701C4.26864 33.7701 4.91194 34.4904 4.98186 35.0738C4.98186 35.0738 4.31059 35.6405 3.27852 35.7606C3.27852 35.7606 3.25055 35.7634 3.19741 35.7634C3.13588 35.7634 3.04637 35.7606 2.93729 35.7522C2.87856 35.7466 2.81143 35.7383 2.7443 35.7271C2.67438 35.7159 2.60445 35.702 2.52894 35.6852C2.48978 35.674 2.44783 35.6629 2.40867 35.6517C2.31357 35.6238 2.21568 35.5875 2.12618 35.5428C2.07863 35.5205 2.03108 35.4926 1.98633 35.4619C1.96676 35.4479 1.94438 35.4368 1.9276 35.4228C1.9248 35.4228 1.9248 35.42 1.922 35.4172C1.88564 35.3921 1.85208 35.3614 1.81852 35.3307C1.81852 35.3307 1.76537 34.7472 1.68146 34.5937V33.9404L1.14725 33.3569V28.3487L0.75288 27.2487C0.75288 27.2487 0.529122 27.0785 0.973836 26.1851C1.42135 25.2918 1.78495 23.9378 1.78495 23.9378C1.78495 23.9378 1.93878 23.5414 1.74859 22.8546C1.7374 22.8183 1.72901 22.7765 1.72062 22.7346C1.70384 22.6481 1.68986 22.5476 1.67587 22.4359C1.67028 22.394 1.66748 22.3521 1.66189 22.3075C1.66189 22.2935 1.65909 22.2823 1.65909 22.2684C1.64511 22.1148 1.63671 21.9501 1.63112 21.7798C1.62553 21.657 1.62273 21.5286 1.61993 21.4058C1.61154 20.7916 1.62832 20.2472 1.62832 20.2472C1.62832 20.2472 1.60035 20.1383 1.55281 19.9345C1.54721 19.9122 1.54162 19.8927 1.53603 19.8703C1.51645 19.7866 1.49407 19.6945 1.4689 19.5856C1.4661 19.5772 1.4633 19.5688 1.4633 19.5577C1.45771 19.5409 1.45212 19.5242 1.44932 19.5046C1.44652 19.4935 1.44372 19.4823 1.44093 19.4683V19.4655C1.43813 19.4599 1.43813 19.4572 1.43533 19.4516C1.42974 19.4292 1.42415 19.4041 1.41855 19.379C1.39618 19.2785 1.371 19.1724 1.34304 19.0579V19.0524L1.34024 19.0496C1.33184 19.0077 1.32066 18.963 1.31227 18.9184C1.30947 18.9128 1.30947 18.9044 1.30667 18.8988C1.27311 18.7592 1.23955 18.6057 1.20319 18.4466C1.20039 18.427 1.1948 18.4103 1.1892 18.3907C1.17801 18.3321 1.16403 18.2707 1.14725 18.2065C1.09411 17.9636 1.03537 17.6984 0.973836 17.4192C0.912304 17.1317 0.847975 16.8246 0.778051 16.5063C0.761269 16.4282 0.747285 16.3472 0.730503 16.2691C0.680158 16.029 0.629815 15.7833 0.57947 15.5293C0.568283 15.4706 0.571077 14.3149 0.576671 13.5835C0.579468 13.2038 0.708129 12.8409 0.94587 12.545C1.23116 12.1876 1.58637 11.7214 1.6479 11.5288C1.6535 11.5092 1.65909 11.4841 1.67028 11.4562C1.67307 11.4422 1.67867 11.4283 1.68426 11.4115C1.69265 11.3808 1.70664 11.3445 1.71782 11.3054C1.7374 11.2468 1.76258 11.1826 1.79334 11.1128C1.80173 11.0905 1.81292 11.0654 1.82411 11.043C1.85767 10.9676 1.89963 10.8923 1.94718 10.8141C1.97794 10.7639 2.0115 10.7108 2.05066 10.6578C2.24365 10.3926 2.52614 10.1273 2.94568 9.94589C2.98764 9.92635 3.02959 9.9096 3.07435 9.89285C3.16944 9.85656 3.27293 9.82585 3.38201 9.80072C3.42396 9.78677 3.47151 9.77839 3.51906 9.77002C3.61975 9.74768 3.72603 9.73372 3.83791 9.72256C3.90224 9.71697 3.97217 9.71139 4.04489 9.7086C4.10642 9.70581 4.17075 9.70302 4.23508 9.70302C4.32458 9.70302 4.41967 9.70581 4.51757 9.71139C4.51757 9.71139 5.70347 9.72814 5.87409 9.71139C6.02232 9.69743 7.22501 9.33172 8.15919 9.30101C8.18157 9.29822 8.20394 9.29822 8.22632 9.29822C8.27946 9.29822 8.3326 9.30101 8.38574 9.30659C8.53678 9.31776 8.68781 9.34568 8.83325 9.39035C8.95632 9.42943 9.12973 9.47968 9.35069 9.53272C9.38705 9.5411 9.42621 9.55227 9.46536 9.56064C9.68912 9.61647 9.96042 9.6751 10.2737 9.73372C10.8471 9.83981 11.5715 9.94589 12.4469 10.0241C12.5308 10.0324 12.6175 10.038 12.7042 10.0464C12.7909 10.052 12.8804 10.0604 12.9699 10.0659C13.602 10.1106 14.3041 10.1385 15.0732 10.1413H15.4564C16.8521 10.1413 17.9149 10.1106 18.7065 10.0687C18.8379 10.0631 18.961 10.0548 19.0757 10.0464C19.1484 10.0436 19.2183 10.0408 19.2854 10.0352C19.3945 10.0268 19.4952 10.0185 19.5903 10.0101C19.649 10.0073 19.705 10.0045 19.7609 9.99893C19.8924 9.98777 20.0098 9.9766 20.1105 9.96264C20.1497 9.95985 20.1889 9.95706 20.2252 9.95148C20.2895 9.94589 20.3483 9.93752 20.3986 9.93193C20.4518 9.92356 20.4965 9.91798 20.5329 9.91239C20.572 9.90681 20.6056 9.90402 20.6308 9.89843C20.6979 9.88727 20.7287 9.88168 20.7287 9.88168L26.2666 8.87109C26.2666 8.87109 26.3114 8.83759 26.5295 8.74268C26.5575 8.73151 26.5855 8.71755 26.619 8.70638C26.7673 8.64497 26.977 8.56401 27.2651 8.46072C27.4917 8.37976 27.7686 8.28484 28.1042 8.17038C28.2972 8.10896 28.507 8.03917 28.7419 7.9638C28.8146 7.93867 28.8902 7.91634 28.9657 7.89121C29.0608 7.86051 29.1587 7.8298 29.2593 7.79909C29.4747 7.73209 29.7041 7.6595 29.9474 7.58413C30.0816 7.54225 30.2215 7.50038 30.3669 7.4585C31.3095 7.17096 32.4674 6.82758 33.8883 6.42558C34.196 6.33904 34.5148 6.24691 34.8504 6.15199C34.9371 6.12687 35.0239 6.10453 35.1134 6.07941H35.1162C35.5916 5.94541 36.0895 5.80582 36.6153 5.66066L36.6069 5.65228C36.6069 5.65228 37.6166 5.43174 38.7746 5.46245C39.0822 5.54062 39.5885 5.64391 40.0695 5.64391H40.1395C40.1395 5.64391 41.0876 6.02916 41.4456 6.67404C41.4456 6.67404 41.496 7.20725 42.7686 8.28763C44.044 9.36801 44.1978 11.0319 44.1978 11.0319L46.3515 13.5416C46.5836 13.8096 46.8437 14.0497 47.1206 14.2702C47.2074 14.34 47.2969 14.407 47.3864 14.4712L47.4787 14.5382C47.6688 14.6694 47.8479 14.8481 47.8926 15.0658C47.9374 15.2808 47.9066 15.3897 47.859 15.4427Z" fill="#F39C0F"/>
<path d="M8.21174 24.1724L7.66187 23.4733L8.2937 22.4041C8.29733 22.3966 8.3032 22.389 8.30684 22.3812C8.88721 21.5018 9.34395 20.3492 9.00915 19.1222C9.07376 19.259 10.0175 21.3634 8.21174 24.1724Z" fill="#CF760E"/>
<path d="M27.2059 29.0774C27.2059 29.0774 26.816 36.1527 28.3068 37.0131L27.9183 37.3593C27.9183 37.3593 27.7862 37.3196 27.7334 37.3118C27.6802 37.3037 27.4151 37.0248 27.4151 37.0248L26.943 35.9743L26.8319 35.7289L26.658 34.1857V33.1413L26.7287 32.0967L26.708 31.8264L26.7508 31.4035L26.8887 30.4733L26.953 30.138L27.0669 29.6213L27.2059 29.0774Z" fill="#CF760E"/>
<path d="M46.3064 17.6789V17.696C46.0286 17.9751 45.566 18.2242 44.8335 18.0854C43.3891 17.8099 43.218 17.7418 43.218 17.7418C43.218 17.7418 42.9858 17.6161 42.67 17.8004C42.6091 17.8367 42.5461 17.8822 42.4796 17.9467C42.4759 17.9372 42.474 17.9316 42.474 17.9316L42.472 17.9296L42.4681 17.9241C42.4435 17.8897 42.3389 17.7493 42.3064 17.7303C42.2723 17.7055 41.9261 17.3029 41.8556 17.3258C41.7851 17.3504 40.6224 16.3476 40.5502 16.2867C40.5502 16.2848 40.3256 16.0721 40.2971 16.0436C40.3503 16.0511 41.0831 16.3571 41.2484 16.4749C41.4234 16.6019 41.4388 16.6647 41.5188 16.6647C41.5969 16.6647 42.1199 16.8719 42.1199 16.8719H42.4796C42.5652 16.7122 42.6432 16.6114 42.6432 16.6114C42.6432 16.6114 42.6642 17.3733 42.7117 17.4738C42.7593 17.5745 44.7403 17.8897 45.0125 17.9545C45.547 18.0815 46.1808 17.7264 46.3064 17.6789Z" fill="#CF760E"/>
<path d="M42.4772 17.9469C42.4487 17.9715 42.4201 18.0019 42.3896 18.0343L42.2585 18.1351L41.3679 18.8207C41.1167 19.0145 40.8122 19.1284 40.4944 19.1454C39.9255 19.1739 38.9891 19.2727 38.5743 19.5954C37.9864 20.0513 36.3594 19.6412 35.6515 23.0694C35.6174 23.2347 35.5869 23.4094 35.5564 23.5937C35.5508 23.6277 35.543 23.6621 35.5335 23.6942L35.3184 24.4083C35.2672 24.5811 35.1567 24.7293 35.0085 24.8318L34.4488 25.2156L31.1647 27.4719C31.1647 27.4719 30.9705 27.6505 30.3977 27.9222C30.3331 27.9543 30.2607 27.9867 30.1846 28.0207L28.7573 28.416C28.7573 28.416 29.3852 26.1615 30.0817 25.719C30.7801 25.2762 31.4139 24.7064 32.0493 24.4521C32.6317 24.2204 33.2671 23.5593 33.4156 23.2081C33.5793 23.1529 33.7297 23.0599 33.7297 23.0599C33.7297 23.0599 33.6002 22.8433 33.4842 22.6096C33.4976 22.4482 33.5127 22.264 33.5393 22.0761C33.6173 22.0513 33.7088 22.0247 33.8019 21.9678C34.0684 21.8025 33.6153 21.6791 33.6153 21.6791V21.6752C33.7012 21.3277 33.8399 21.0105 34.078 20.8433C34.7134 20.4008 34.3957 20.0209 34.8695 19.831C35.3433 19.6412 35.2197 19.6412 35.9807 19.5918C36.7418 19.5404 36.9968 18.7864 36.9968 18.7864C36.1083 18.8813 34.8695 18.7864 34.8695 18.7864C36.1043 17.3621 40.5476 16.287 40.5476 16.287C40.62 16.3478 41.7827 17.3506 41.8529 17.3258C41.9234 17.3032 42.2696 17.7057 42.304 17.7303C42.3365 17.7493 42.4411 17.89 42.4657 17.924L42.4696 17.9299L42.4772 17.9469Z" fill="#CF760E"/>
<path d="M48.1213 14.6807V15.5582L47.7161 15.6989C47.7161 15.6989 46.3137 15.5716 47.1223 14.2703H47.7161L48.1213 14.6807Z" fill="black"/>
<path d="M48.1207 14.6808V15.5107C47.9 15.4767 46.9655 15.2715 47.4718 14.2704H47.7154L48.1207 14.6808Z" fill="#F39C0F"/>
<path d="M41.876 11.0599C41.876 11.0599 42.8127 11.3131 43.5939 11.151C43.5939 11.151 43.3995 10.3952 42.9833 9.778L41.876 11.0599Z" fill="black"/>
<path d="M1.31201 18.9183C1.3204 18.963 1.33159 19.0076 1.33998 19.0495L1.34278 19.0523C1.33159 19.0104 1.3204 18.9658 1.31201 18.9183ZM1.42389 19.3957C1.42109 19.3901 1.42109 19.3845 1.4183 19.3789C1.42389 19.4041 1.42948 19.4292 1.43508 19.4515C1.43787 19.4571 1.43787 19.4599 1.44067 19.4655C1.43508 19.4431 1.42948 19.4208 1.42389 19.3957ZM27.304 36.9135C27.3264 36.9219 27.3488 36.9275 27.374 36.933V36.9302C27.3488 36.9247 27.3264 36.9191 27.304 36.9135ZM27.6872 36.9805C27.6704 36.9805 27.6508 36.9777 27.6341 36.9749C27.6508 36.9777 27.6704 36.9805 27.6872 36.9833H27.69C27.6984 36.9833 27.7068 36.9833 27.7152 36.9861C27.7068 36.9833 27.6956 36.9833 27.6872 36.9805Z" fill="black"/>
<path d="M38.7326 4.92947C38.5927 5.19189 38.5004 5.36218 38.4892 5.38451V5.3873C38.2851 5.40685 38.0389 5.43755 37.7956 5.47105C37.2026 5.5548 36.6153 5.66089 36.6153 5.66089L36.6069 5.65251C36.5957 5.64135 36.5845 5.61343 36.5901 5.55201C36.5901 5.54085 36.5901 5.53247 36.5929 5.5213C36.6041 5.44872 36.6349 5.33985 36.7132 5.17793C36.7272 5.15001 36.7411 5.1193 36.7579 5.08859C36.7607 5.08022 36.7663 5.07184 36.7719 5.06347C37.0264 5.01601 37.3397 4.96855 37.6837 4.94063C38.0138 4.91551 38.3718 4.90434 38.7326 4.92947Z" fill="black"/>
<path d="M40.9531 9.47145C40.9531 9.47145 41.0949 10.6509 42.798 10.5703C42.798 10.5703 42.318 9.28274 40.9531 9.47145Z" fill="white"/>
<path d="M42.6339 10.5741C42.5863 10.5741 42.5388 10.5741 42.494 10.5685C42.4465 10.5685 42.4017 10.5657 42.3598 10.5601C42.343 10.5601 42.3262 10.5601 42.3094 10.5573C42.2423 10.5489 42.178 10.5378 42.1165 10.5238C42.0409 10.5098 41.971 10.4931 41.9039 10.4708C41.8703 10.4624 41.8396 10.4512 41.8088 10.4373C41.778 10.4261 41.7473 10.4149 41.7193 10.3982C41.6941 10.3898 41.6689 10.3786 41.6438 10.3619C41.6158 10.3507 41.585 10.334 41.5599 10.3172C41.4843 10.2725 41.42 10.2251 41.3613 10.1748C41.3389 10.1553 41.3165 10.1358 41.2969 10.1134C41.2662 10.0827 41.2382 10.052 41.213 10.0213C41.1963 10.0045 41.1851 9.9878 41.1739 9.97105C40.9837 9.71421 40.9529 9.47134 40.9529 9.47134C41.048 9.45738 41.1375 9.45179 41.2214 9.45179C41.2886 9.45179 41.3557 9.45459 41.4172 9.46296C41.448 9.46575 41.4787 9.47134 41.5095 9.47692C41.5822 9.48809 41.6522 9.50484 41.7165 9.52717C41.7445 9.53554 41.7724 9.54392 41.7976 9.55509C42.0493 9.65 42.2451 9.80075 42.3961 9.95709C42.4129 9.97384 42.4297 9.99059 42.4465 10.0101C42.4773 10.0436 42.5052 10.0799 42.5332 10.1134C42.5584 10.1497 42.5835 10.1832 42.6059 10.2139C42.6283 10.2474 42.6479 10.2781 42.6675 10.3088C42.687 10.3395 42.7038 10.3675 42.715 10.3954C42.7234 10.4093 42.7318 10.4205 42.7346 10.4317C42.7793 10.5154 42.7989 10.5685 42.7989 10.5685C42.743 10.5713 42.687 10.5741 42.6339 10.5741ZM43.3639 10.4903V10.4847L43.3611 10.4819C43.3583 10.4512 43.3499 10.4205 43.3387 10.3926C43.3387 10.3898 43.3387 10.3898 43.3359 10.387C43.3387 10.3814 43.3359 10.3758 43.3331 10.3703C43.3331 10.3675 43.3275 10.3619 43.3247 10.3507C43.3135 10.3228 43.3024 10.2977 43.2968 10.2781C43.2828 10.2558 43.2716 10.2279 43.2576 10.1972C43.0562 9.80355 42.4605 8.88229 41.2214 8.88229C41.1907 8.88229 41.1599 8.88229 41.1263 8.88508H41.1068C41.0312 8.88787 40.9529 8.89625 40.8746 8.90742C40.69 8.93254 40.5362 9.04421 40.4523 9.19775C40.3963 9.29825 40.3712 9.4155 40.3879 9.53834C40.4439 9.99617 40.8299 10.7918 41.8787 11.057C42.0997 11.1128 42.3514 11.1436 42.6339 11.1436C42.6619 11.1436 42.6898 11.1436 42.7206 11.1408C42.7542 11.1408 42.7905 11.1408 42.8269 11.138C42.8437 11.138 42.8576 11.1352 42.8744 11.1352C43.0199 11.1128 43.1541 11.0375 43.2464 10.9202C43.2576 10.9091 43.266 10.8979 43.2744 10.8839C43.3247 10.8086 43.3555 10.7248 43.3639 10.6383V10.6355C43.3723 10.588 43.3695 10.5378 43.3639 10.4903Z" fill="black"/>
<path d="M27.6955 37.9272C27.6955 37.9272 27.6807 37.9192 27.6519 37.9035C27.6163 37.8837 27.5708 37.8513 27.531 37.8055C27.5123 37.7824 27.5053 37.7712 27.4896 37.75C27.4385 37.6749 27.3808 37.5769 27.3199 37.4515C27.1968 37.2011 27.0525 36.8418 26.9244 36.4002C26.7946 35.9597 26.6836 35.4371 26.6108 34.8734C26.5764 34.5915 26.5471 34.2997 26.5334 34.0027C26.5166 33.7057 26.5149 33.4042 26.5183 33.1029C26.5264 32.802 26.5415 32.5016 26.5675 32.2071C26.5935 31.9126 26.6293 31.6242 26.6696 31.3461C26.6922 31.2077 26.7143 31.0714 26.7361 30.938C26.7619 30.8054 26.7871 30.6758 26.8117 30.5497C26.8645 30.2981 26.9177 30.0611 26.9739 29.8445C27.0844 29.4101 27.1932 29.0536 27.274 28.8057C27.356 28.5581 27.4029 28.4168 27.4029 28.4168C27.4029 28.4168 27.3646 28.5606 27.2975 28.8124C27.232 29.0642 27.1448 29.426 27.0612 29.8637C27.0181 30.0821 26.9795 30.3205 26.9423 30.5723C26.9252 30.6985 26.9082 30.8283 26.8903 30.9609C26.8768 31.0938 26.8631 31.2294 26.8489 31.3676C26.8257 31.644 26.8075 31.9299 26.7994 32.2205C26.7912 32.5111 26.794 32.8059 26.8036 33.1004C26.8181 33.3944 26.8371 33.6881 26.871 33.9751C26.9014 34.2623 26.9468 34.5429 26.9963 34.8126C27.0989 35.3514 27.2354 35.8444 27.3825 36.2525C27.5282 36.6612 27.6832 36.9864 27.8029 37.1969C27.8622 37.3027 27.9148 37.3778 27.9447 37.4164C27.9503 37.4231 27.9551 37.4292 27.9593 37.4345C27.938 37.408 27.9078 37.3915 27.8846 37.3848C27.8787 37.3834 27.8731 37.3823 27.8681 37.3809L27.8728 37.3834C27.8759 37.3851 27.8784 37.3862 27.8804 37.3873L27.8865 37.3904L27.6955 37.9272Z" fill="black"/>
<path d="M6.65723 23.804C6.65723 23.804 6.67429 23.7914 6.70645 23.7677C6.73918 23.7417 6.78756 23.7038 6.8491 23.6555C6.97132 23.5558 7.14417 23.407 7.34108 23.2166C7.73377 22.8367 8.22184 22.2797 8.57006 21.6346C8.65704 21.4738 8.73536 21.3082 8.80164 21.1407C8.86653 20.9729 8.92471 20.8046 8.96387 20.6371C8.98652 20.5542 9.0033 20.4713 9.01645 20.3895C9.03323 20.308 9.0419 20.2273 9.04973 20.1485C9.06036 20.0698 9.06316 19.9928 9.06484 19.9182C9.06931 19.8434 9.06903 19.7711 9.06428 19.7019C9.0626 19.5626 9.04246 19.4364 9.02904 19.3233C9.00862 19.2119 8.98792 19.1145 8.96974 19.0347C8.92359 18.8772 8.8973 18.7873 8.8973 18.7873C8.8973 18.7873 8.93226 18.8747 8.99324 19.0277C9.01925 19.1059 9.04917 19.2016 9.08078 19.3127C9.10511 19.4252 9.13784 19.5522 9.15322 19.6943C9.16497 19.765 9.17196 19.8392 9.17504 19.9163C9.18063 19.9933 9.18511 20.0735 9.18203 20.1555C9.18175 20.2379 9.18063 20.3227 9.17112 20.4087C9.16553 20.4953 9.1563 20.5835 9.14091 20.6723C9.11658 20.8512 9.07295 21.033 9.0212 21.2155C8.96834 21.3978 8.90289 21.5798 8.82738 21.7574C8.52615 22.4709 8.06912 23.1044 7.69322 23.5446C7.50442 23.7652 7.3366 23.9405 7.21466 24.0605C7.15201 24.12 7.10306 24.1669 7.0695 24.199C7.0337 24.2311 7.0144 24.2484 7.0144 24.2484L6.65723 23.804Z" fill="black"/>
<path d="M36.7714 5.06342C37.0259 5.01596 37.3392 4.9685 37.6832 4.94059C37.205 5.31188 36.6064 5.65247 36.6064 5.65247C36.5952 5.6413 36.584 5.61338 36.5896 5.55197C36.5896 5.5408 36.5896 5.53242 36.5924 5.52126C36.6036 5.44867 36.6344 5.3398 36.7127 5.17788C36.7267 5.14996 36.7407 5.11925 36.7574 5.08855C36.7602 5.08017 36.7658 5.0718 36.7714 5.06342Z" fill="black"/>
<path d="M41.3417 8.89371C41.3417 8.89371 40.2078 8.78288 39.0742 9.35266C39.0742 9.35266 40.85 9.09946 41.3417 9.19437V8.89371Z" fill="black"/>
<path d="M43.2607 10.1916C43.2607 10.1916 43.5463 10.8881 43.5938 11.1492C43.5938 11.1492 43.3877 11.078 42.7136 11.1492L43.2607 10.1916Z" fill="black"/>
<path d="M43.3976 10.574C43.3976 10.574 43.6698 10.193 43.5945 9.86048C43.5945 9.86048 43.8362 10.5885 43.5945 11.1505L43.2217 10.9051L43.3976 10.574Z" fill="black"/>
<path d="M28.7586 29.0719C28.7586 29.0719 28.7597 29.0557 28.7623 29.0253C28.7639 28.9943 28.7662 28.949 28.7693 28.8913C28.7746 28.7734 28.7768 28.602 28.7746 28.3955C28.7687 27.9823 28.7376 27.4265 28.6736 26.872C28.6112 26.3173 28.5242 25.7635 28.4445 25.35C28.4082 25.1426 28.3696 24.9715 28.3455 24.8509C28.3209 24.7302 28.3066 24.6616 28.3066 24.6616C28.3066 24.6616 28.3293 24.728 28.3693 24.8444C28.4084 24.9611 28.4686 25.1267 28.531 25.3282C28.663 25.73 28.8207 26.2721 28.9547 26.8226C29.0906 27.3726 29.1941 27.9323 29.2548 28.358C29.2845 28.571 29.3049 28.7503 29.3155 28.8776C29.3203 28.9426 29.3242 28.9937 29.3267 29.0286C29.3284 29.0641 29.3295 29.0828 29.3295 29.0828L28.7586 29.0719Z" fill="black"/>
<path d="M2.55955 18.6282C2.54808 18.3205 2.53857 18.1248 2.53857 18.1248C2.56347 18.2845 2.56906 18.4534 2.55955 18.6282Z" fill="#CF760E"/>
<path d="M10.2733 9.73377C10.1897 9.7642 7.49318 10.7234 6.83674 11.1584C6.17079 11.6028 5.15466 12.1078 4.77399 12.1078C4.39333 12.1078 3.31651 12.7424 2.87123 13.2474C2.42764 13.7546 2.55518 15.0215 2.55518 15.2113C2.55518 15.4012 2.33058 16.8012 2.53812 18.1267C2.53812 18.1267 2.54763 18.3224 2.55909 18.63C2.59517 19.6233 2.65811 21.783 2.53812 22.1836C2.38009 22.7042 2.57056 24.3186 2.1899 25.0783C1.80923 25.8379 1.45346 26.7647 1.45346 27.0269C1.45346 27.287 1.90433 28.497 1.73903 29.4238C1.57149 30.3506 1.76168 30.9662 1.73903 31.4182C1.71414 31.8702 1.76169 32.2956 1.80923 32.7476C1.85678 33.1996 2.35548 33.6973 2.28499 34.0544C2.21451 34.4095 2.40862 35.6534 2.40862 35.6534C2.19549 35.5909 1.98069 35.4901 1.81706 35.3327C1.81706 35.3327 1.7656 34.7495 1.68001 34.5937V33.9421L1.1472 33.3592V28.3487L0.751428 27.2491C0.751428 27.2491 0.526833 27.0782 0.974065 26.1854C1.42102 25.2929 1.78266 23.9387 1.78266 23.9387C1.78266 23.9387 1.93677 23.5437 1.74854 22.8561C1.66099 22.537 1.62659 21.9443 1.61904 21.4069C1.60953 20.7933 1.62855 20.2484 1.62855 20.2484C1.62855 20.2484 1.60002 20.1381 1.55052 19.9349C1.5466 19.9139 1.54101 19.8933 1.53541 19.8704C1.48003 19.6406 1.40032 19.3101 1.30494 18.8997C1.27278 18.7593 1.23838 18.6074 1.2023 18.4477C1.19838 18.4288 1.19474 18.4117 1.18887 18.3927C1.17572 18.3319 1.1623 18.271 1.1472 18.2085C1.09377 17.9634 1.03476 17.6996 0.974065 17.4201C0.848482 16.8467 0.715068 16.2105 0.578298 15.5304C0.56683 15.4715 0.570466 14.3169 0.57634 13.5838C0.578298 13.2058 0.707516 12.8409 0.945536 12.5447C1.22887 12.1896 1.58492 11.7223 1.64561 11.5305C1.74854 11.2058 2.12725 9.57437 4.51528 9.71284C4.51528 9.71284 5.70258 9.72987 5.87375 9.71284C6.02031 9.69776 7.223 9.33289 8.15914 9.30078C8.38765 9.29325 8.61392 9.32535 8.83292 9.39179C9.09164 9.47163 9.57131 9.60284 10.2733 9.73377Z" fill="#CF760E"/>
<path d="M42.9419 18.2568C42.9419 18.2568 42.8924 18.2292 42.806 18.1809C42.7221 18.1318 42.604 18.0614 42.4664 17.9718C42.1904 17.7948 41.836 17.5419 41.5037 17.2647C41.3367 17.1276 41.1756 16.9833 41.0299 16.8434C40.8839 16.7044 40.7519 16.5704 40.6445 16.4503C40.5351 16.3328 40.449 16.2306 40.3905 16.1575C40.331 16.0857 40.2971 16.0447 40.2971 16.0447C40.2971 16.0447 40.3374 16.0796 40.4082 16.1405C40.4775 16.2024 40.5788 16.2884 40.7052 16.3853C40.8291 16.4841 40.9796 16.5927 41.1435 16.7033C41.3071 16.8144 41.485 16.9269 41.6673 17.0313C42.0304 17.2432 42.4074 17.426 42.6944 17.5483C42.8373 17.6103 42.9579 17.6572 43.0412 17.6887C43.1237 17.718 43.1707 17.7348 43.1707 17.7348L42.9419 18.2568Z" fill="black"/>
<path d="M42.0623 6.71326C42.0066 6.65488 41.9537 6.60205 41.8979 6.54923C41.9732 6.61874 42.0289 6.67712 42.0623 6.71326Z" fill="black"/>
<path d="M42.0623 6.71326C42.0066 6.65488 41.9537 6.60205 41.8979 6.54923C41.9732 6.61874 42.0289 6.67712 42.0623 6.71326Z" fill="black"/>
<path d="M47.8583 15.4428C47.8583 15.4484 47.8555 15.4512 47.8527 15.4512C47.7883 15.521 47.7408 15.6047 47.7156 15.6996C47.696 15.761 47.6848 15.828 47.6792 15.895L47.6541 16.3278C47.6429 16.5232 47.5254 16.6963 47.3492 16.7856L46.6724 17.1262C46.6724 17.1262 46.6612 17.1541 46.6416 17.2015C46.6332 17.2211 46.622 17.2434 46.608 17.2685C46.5549 17.3802 46.457 17.5421 46.306 17.6957C46.2668 17.7348 46.2248 17.7711 46.1801 17.8073C46.1493 17.8325 46.1158 17.8576 46.0794 17.8799C46.0039 17.933 45.92 17.9776 45.8249 18.0139C45.8109 18.0223 45.7941 18.0279 45.7801 18.0335C45.7661 18.0391 45.7494 18.0446 45.7354 18.0474C45.5871 18.0977 45.4221 18.1256 45.2291 18.1256C45.1061 18.1256 44.9746 18.1116 44.832 18.0865C43.3887 17.8101 43.2153 17.7431 43.2153 17.7431C43.2153 17.7431 43.2125 17.7431 43.2069 17.7403C43.193 17.732 43.1538 17.718 43.0979 17.7068H43.0951C43 17.6929 42.8461 17.6985 42.6671 17.8018C42.6084 17.8381 42.5441 17.8827 42.4769 17.9469C42.4713 17.9525 42.4629 17.9581 42.4574 17.9665C42.435 17.986 42.4126 18.0111 42.3902 18.0335L42.2588 18.1368L41.3693 18.8207C41.1176 19.0161 40.8127 19.1278 40.4939 19.1446C39.9261 19.1753 38.9891 19.273 38.5752 19.5968C38.371 19.7531 38.0438 19.809 37.6718 19.9541C37.6522 19.9597 37.6326 19.9681 37.613 19.9765L37.5963 19.9849C37.5907 19.9876 37.5823 19.9904 37.5767 19.9932C37.5627 19.9988 37.5487 20.0044 37.5375 20.01C37.5179 20.0184 37.4984 20.0267 37.476 20.0407C37.4396 20.0546 37.4033 20.0742 37.3697 20.0909C37.3361 20.1077 37.3026 20.1272 37.2662 20.1496C37.2327 20.1691 37.1963 20.1914 37.1599 20.2194C37.0704 20.278 36.9809 20.3478 36.8914 20.4287C36.8719 20.4455 36.8551 20.4622 36.8383 20.479C36.6089 20.6995 36.3824 21.001 36.1782 21.4254C36.1502 21.484 36.1223 21.5454 36.0943 21.6068C35.9321 21.9781 35.7866 22.436 35.6692 22.9971C35.6636 23.0306 35.6552 23.0613 35.6496 23.092C35.616 23.2511 35.5881 23.4186 35.5573 23.5945C35.5517 23.628 35.5433 23.6615 35.5349 23.695L35.3195 24.4097C35.2692 24.5828 35.1573 24.7307 35.0091 24.8312L34.4497 25.2165L31.1661 27.4722C31.1661 27.4722 31.1046 27.528 30.9479 27.6257C30.9311 27.6369 30.9116 27.6508 30.892 27.662C30.8808 27.6704 30.8668 27.6787 30.85 27.6871C30.8025 27.715 30.7465 27.7457 30.6822 27.7792C30.6514 27.796 30.6263 27.8099 30.5955 27.8267C30.5787 27.8323 30.5647 27.8407 30.5508 27.849C30.534 27.8546 30.5172 27.8658 30.5004 27.8742C30.4557 27.8993 30.4053 27.9216 30.3522 27.9467C30.299 27.9691 30.2459 27.9942 30.1844 28.0221L29.2446 28.2817L28.7747 28.4102L28.7579 28.4157L28.7691 28.868V28.8931L28.7747 29.0746L28.7803 29.2867C28.7859 29.591 28.6964 29.887 28.523 30.1382L28.1901 30.6128L28.1734 33.3068C28.1734 33.3068 28.4475 33.7534 28.5174 34.0438C28.5845 34.3369 28.9453 35.5541 29.6669 36.104C29.6669 36.104 29.6613 36.132 29.6418 36.185L29.625 36.2185C29.6194 36.2325 29.6138 36.2464 29.6054 36.2632C29.597 36.2799 29.5858 36.2995 29.5746 36.3162C29.569 36.3302 29.5606 36.3413 29.5522 36.3553C29.5439 36.3665 29.5355 36.3776 29.5299 36.3888C29.5187 36.4028 29.5103 36.4167 29.4991 36.4307C29.4851 36.4474 29.4711 36.467 29.4544 36.4837C29.418 36.5284 29.3732 36.5758 29.3201 36.6205C29.2977 36.64 29.2726 36.6624 29.2446 36.6847C29.1858 36.7294 29.1187 36.7713 29.046 36.8131C29.0124 36.8299 28.9817 36.8466 28.9453 36.8634C28.9117 36.8801 28.881 36.8941 28.8446 36.9108C28.8167 36.922 28.7859 36.9332 28.7523 36.9443C28.6852 36.9695 28.6125 36.9918 28.5342 37.0113C28.5342 37.0113 28.467 37.0141 28.3635 37.0141H28.3076C28.151 37.0141 27.93 37.0058 27.7147 36.9862C27.7063 36.9834 27.6979 36.9834 27.6895 36.9834H27.6867C27.6699 36.9806 27.6503 36.9778 27.6335 36.975C27.544 36.9639 27.4545 36.9499 27.3734 36.9332C27.3483 36.9276 27.3259 36.922 27.3035 36.9136C27.228 36.8941 27.1609 36.869 27.1077 36.841C27.1077 36.841 27.1133 36.9388 27.1665 37.1118C27.1692 37.1174 27.172 37.1202 27.172 37.1258C27.2196 37.2682 27.3035 37.4608 27.4489 37.6897C27.4629 37.7121 27.4741 37.7316 27.4881 37.7511C27.6252 37.9577 27.8125 38.1922 28.0699 38.4379C28.0699 38.4379 27.8405 39.1219 26.814 39.3284C26.7861 39.3368 26.7581 39.3424 26.7301 39.348H25.1303C25.1303 39.348 24.5122 39.1749 24.322 38.678L24.3751 37.7846L23.8577 37.3575C23.8577 37.3575 23.7542 36.8578 24.2884 36.4474C24.2884 36.4474 24.5289 35.4005 24.5625 34.3202L24.5961 32.0533C24.5961 32.0533 24.1485 31.7797 24.3052 29.753C24.3052 29.753 23.8744 28.2427 23.7206 27.4554C23.564 26.6654 19.6622 25.9284 19.6622 25.9284L17.3939 25.8586C16.7534 25.8418 15.7241 25.9619 15.7241 25.9619C15.7241 25.9619 15.713 25.9619 15.685 25.9563C15.6738 25.9535 15.6598 25.9535 15.643 25.9507C15.6263 25.9479 15.6067 25.9451 15.5871 25.9423C15.5423 25.9367 15.492 25.9284 15.4333 25.92C15.3941 25.9144 15.3494 25.906 15.3046 25.9004C14.6194 25.7999 13.2489 25.5766 12.2755 25.2667C11.8867 25.1439 11.5623 25.0071 11.3721 24.8619C11.3693 24.8619 11.3665 24.8647 11.3665 24.8675C11.3553 24.8731 11.3497 24.8843 11.3413 24.8926C11.3357 24.901 11.3301 24.9094 11.3218 24.9178C11.3078 24.9373 11.291 24.9596 11.2714 24.9876C11.2714 24.9931 11.2658 24.9959 11.2658 24.9987C11.235 25.0434 11.1987 25.0992 11.1651 25.169C11.0197 25.437 10.8659 25.8921 10.919 26.5509C10.9246 26.6291 10.933 26.71 10.9442 26.7938C10.9526 26.8524 10.9637 26.911 10.9749 26.9697C10.9861 27.0283 10.9973 27.0897 11.0113 27.1511C11.0337 27.2488 11.0588 27.3493 11.0924 27.4526C11.1176 27.5475 11.1511 27.6452 11.1875 27.7457C11.1875 27.7457 11.8728 30.6295 13.5929 31.7797C13.5929 31.7797 13.8866 31.8495 14.2306 32.62C14.2306 32.62 14.8823 33.4771 15.0725 33.5971C15.0725 33.5971 14.5578 34.3537 13.5929 34.4039C13.5929 34.4039 13.3384 34.4207 13.0167 34.3872C12.958 34.3816 12.8992 34.3732 12.8377 34.3648C12.5244 34.3202 12.1776 34.2224 11.9427 34.027C11.9427 34.027 11.7721 33.1867 11.1539 32.687L11.1344 31.4698C11.1344 31.4698 9.5373 28.2427 8.69542 27.6089C8.69542 27.6089 8.45209 27.1288 8.45209 26.8384C8.45209 26.5453 8.53879 24.5883 8.53879 24.5883L8.21155 24.1724L7.70531 23.5303L7.66335 23.4745C7.66335 23.4745 7.57105 23.4019 7.40323 23.4019C7.39205 23.4019 7.38086 23.4019 7.36687 23.4047C7.3445 23.4047 7.31933 23.4075 7.29136 23.413C7.21304 23.4242 7.12634 23.4549 7.02844 23.5052C7.02565 23.508 7.02285 23.508 7.02285 23.508C6.96411 23.5359 6.90538 23.575 6.84385 23.6196C6.78511 23.6615 6.72638 23.7118 6.66205 23.7732C6.63967 23.7927 6.62009 23.8123 6.59771 23.8346C6.59771 23.8346 3.5882 26.4588 3.43157 27.9691L3.00364 28.8792V31.3666C3.00364 31.3666 3.56862 32.8099 3.89587 33.1672C4.03012 33.3151 4.11123 33.3542 4.15878 33.3849C4.16717 33.3877 4.17556 33.3933 4.18115 33.3989C4.20632 33.4184 4.22311 33.438 4.23429 33.4827C4.23709 33.4882 4.23709 33.4938 4.23709 33.5022C4.24268 33.5189 4.24548 33.5385 4.24828 33.5608C4.24828 33.572 4.25108 33.5859 4.25388 33.6027C4.25947 33.6446 4.26226 33.7004 4.26786 33.7702C4.26786 33.7702 4.91116 34.4904 4.98108 35.0739C4.98108 35.0739 4.30981 35.6406 3.27774 35.7607C3.27774 35.7607 3.24977 35.7635 3.19663 35.7635C3.1351 35.7635 3.04559 35.7607 2.93651 35.7523C2.87778 35.7467 2.81065 35.7383 2.74352 35.7272C2.6736 35.716 2.60367 35.702 2.52816 35.6853C2.489 35.6741 2.44705 35.663 2.40789 35.6518C2.31279 35.6239 2.2149 35.5876 2.1254 35.5429C2.07785 35.5206 2.0303 35.4927 1.98555 35.462C1.96597 35.448 1.9436 35.4368 1.92681 35.4229C1.92402 35.4229 1.92402 35.4201 1.92122 35.4173C1.88486 35.3922 1.8513 35.3615 1.81773 35.3307C1.81773 35.3307 1.76459 34.7473 1.68068 34.5937V33.9405L1.14647 33.357V28.3487L0.752099 27.2488C0.752099 27.2488 0.528341 27.0785 0.973055 26.1852C1.42057 25.2918 1.78417 23.9379 1.78417 23.9379C1.78417 23.9379 1.938 23.5415 1.74781 22.8547C1.73662 22.8184 1.72823 22.7765 1.71984 22.7347C1.70306 22.6481 1.68908 22.5476 1.67509 22.436C1.6695 22.3941 1.6667 22.3522 1.66111 22.3075C1.66111 22.2936 1.65831 22.2824 1.65831 22.2685C1.64433 22.1149 1.63593 21.9502 1.63034 21.7799C1.62475 21.6571 1.62195 21.5287 1.61915 21.4058C1.61076 20.7917 1.62754 20.2473 1.62754 20.2473C1.62754 20.2473 1.59957 20.1384 1.55203 19.9346C1.54643 19.9123 1.54084 19.8927 1.53524 19.8704C1.51567 19.7866 1.49329 19.6945 1.46812 19.5856C1.46532 19.5773 1.46252 19.5689 1.46252 19.5577C1.45693 19.541 1.45134 19.5242 1.44854 19.5047C1.44574 19.4935 1.44294 19.4824 1.44014 19.4684V19.4656C1.43735 19.46 1.43735 19.4572 1.43455 19.4516C1.42896 19.4293 1.42337 19.4042 1.41777 19.3791C1.3954 19.2786 1.37022 19.1725 1.34225 19.058V19.0524L1.33945 19.0496C1.33106 19.0078 1.31988 18.9631 1.31149 18.9184C1.30869 18.9128 1.30869 18.9045 1.30589 18.8989C1.27233 18.7593 1.23877 18.6058 1.20241 18.4466C1.19961 18.4271 1.19402 18.4103 1.18842 18.3908C1.17723 18.3322 1.16325 18.2708 1.14647 18.2066C1.09333 17.9637 1.03459 17.6985 0.973055 17.4193C0.911523 17.1318 0.847194 16.8247 0.77727 16.5064C0.760488 16.4283 0.746504 16.3473 0.729722 16.2691C0.679377 16.029 0.629034 15.7834 0.578689 15.5293C0.567501 15.4707 0.570296 14.3149 0.57589 13.5835C0.578687 13.2039 0.707348 12.8409 0.945088 12.545C1.23038 12.1877 1.58559 11.7215 1.64712 11.5288C1.65271 11.5093 1.65831 11.4842 1.6695 11.4563C1.67229 11.4423 1.67789 11.4283 1.68348 11.4116C1.69187 11.3809 1.70586 11.3446 1.71704 11.3055C1.73662 11.2469 1.7618 11.1827 1.79256 11.1129C1.80095 11.0906 1.81214 11.0654 1.82333 11.0431C1.85689 10.9677 1.89885 10.8923 1.9464 10.8142C1.97716 10.7639 2.01072 10.7109 2.04988 10.6578C2.24287 10.3926 2.52536 10.1274 2.9449 9.94596C2.98686 9.92642 3.02881 9.90967 3.07356 9.89292C3.16866 9.85663 3.27214 9.82592 3.38123 9.80079C3.42318 9.78684 3.47073 9.77846 3.51828 9.77009C3.61897 9.74775 3.72525 9.7338 3.83713 9.72263C3.90146 9.71704 3.97138 9.71146 4.0441 9.70867C4.10564 9.70588 4.16997 9.70309 4.23429 9.70309C4.3238 9.70309 4.41889 9.70588 4.51678 9.71146C4.51678 9.71146 5.70269 9.72821 5.87331 9.71146C6.02154 9.6975 7.22423 9.33179 8.15841 9.30108C8.18078 9.29829 8.20316 9.29829 8.22554 9.29829C8.27868 9.29829 8.33182 9.30108 8.38496 9.30667C8.536 9.31783 8.68703 9.34575 8.83247 9.39042C8.95554 9.4295 9.12895 9.47975 9.34991 9.53279C9.38627 9.54117 9.42542 9.55233 9.46458 9.56071C9.68834 9.61654 9.95964 9.67517 10.2729 9.7338C10.8463 9.83988 11.5707 9.94596 12.4461 10.0241C12.53 10.0325 12.6167 10.0381 12.7034 10.0465C12.7902 10.052 12.8797 10.0604 12.9692 10.066C13.6013 10.1107 14.3033 10.1386 15.0725 10.1414H15.4556C16.8513 10.1414 17.9142 10.1107 18.7057 10.0688C18.8371 10.0632 18.9602 10.0548 19.0749 10.0465C19.1476 10.0437 19.2175 10.0409 19.2847 10.0353C19.3937 10.0269 19.4944 10.0185 19.5895 10.0102C19.6483 10.0074 19.7042 10.0046 19.7601 9.999C19.8916 9.98784 20.0091 9.97667 20.1098 9.96271C20.1489 9.95992 20.1881 9.95713 20.2244 9.95155C20.2888 9.94596 20.3475 9.93759 20.3978 9.932C20.451 9.92363 20.4957 9.91805 20.5321 9.91246C20.5713 9.90688 20.6048 9.90409 20.63 9.8985C20.6971 9.88734 20.7279 9.88175 20.7279 9.88175L26.2658 8.87116C26.2658 8.87116 26.3106 8.83766 26.5287 8.74275C26.5567 8.73158 26.5847 8.71762 26.6183 8.70646C26.7665 8.64504 26.9763 8.56408 27.2643 8.46078C27.4909 8.37983 27.7678 8.28491 28.1034 8.17045C28.2964 8.10903 28.5062 8.03924 28.7411 7.96387C28.8139 7.93874 28.8894 7.91641 28.9649 7.89128C29.06 7.86057 29.1579 7.82986 29.2586 7.79916C29.4739 7.73216 29.7033 7.65957 29.9466 7.5842C30.0809 7.54232 30.2207 7.50045 30.3662 7.45857C31.3087 7.17103 32.4667 6.82765 33.8875 6.42565C34.1952 6.3391 34.514 6.24698 34.8497 6.15207C34.9364 6.12694 35.0231 6.1046 35.1126 6.07948H35.1154C35.5909 5.94548 36.0887 5.80589 36.6145 5.66073L36.6061 5.65235C36.6061 5.65235 37.6158 5.43181 38.7738 5.46252C39.2241 5.47647 39.694 5.52673 40.1387 5.64398C40.1387 5.64398 41.0868 6.02923 41.4449 6.67411C41.4449 6.67411 41.4952 7.20732 42.7678 8.2877C44.0432 9.36808 44.1971 11.0319 44.1971 11.0319L46.3507 13.5417C46.5828 13.8097 46.843 14.0497 47.1199 14.2703C47.2066 14.3401 47.2961 14.4071 47.3856 14.4713L47.4779 14.5383C47.6681 14.6695 47.8471 14.8482 47.8918 15.0659C47.9366 15.2809 47.9058 15.3897 47.8583 15.4428ZM48.4512 14.9487C48.3841 14.622 48.1687 14.3261 47.8135 14.0749C47.7939 14.0637 47.7771 14.0497 47.7576 14.0386C47.7492 14.0302 47.738 14.0246 47.7268 14.0162C47.724 14.0134 47.724 14.0107 47.7212 14.0107C47.6513 13.9604 47.5646 13.8962 47.4835 13.8292C47.4807 13.8292 47.4779 13.8264 47.4751 13.8236C47.201 13.6059 46.9744 13.3937 46.7842 13.1704L44.7397 10.7891C44.653 10.2754 44.3201 8.8572 43.1398 7.8522C42.5161 7.32457 42.2308 6.95886 42.1021 6.75507C42.1021 6.75507 42.1021 6.75228 42.0993 6.75228C41.9791 6.53452 41.8224 6.33632 41.6518 6.16602C40.9498 5.44577 39.9709 5.09681 39.8954 5.07168L39.8898 5.06889C39.7024 5.05772 39.5122 5.0326 39.3416 5.00189C39.1402 4.9656 38.9332 4.94326 38.7318 4.92931C38.371 4.90418 38.013 4.91535 37.683 4.94048C37.6606 4.94326 37.641 4.94326 37.6214 4.94606C37.2998 4.97397 37.0089 5.01864 36.7712 5.0633C36.3488 5.13868 36.0803 5.21685 36.0803 5.21685L36.0048 5.23918C35.6524 5.33689 35.3112 5.43181 34.9811 5.52393C34.9755 5.52673 34.9671 5.52673 34.9615 5.52952C34.872 5.55465 34.7825 5.57977 34.6958 5.60489L34.2092 5.74168L33.7309 5.87848C32.4667 6.23582 31.2808 6.58477 30.2011 6.9114L30.0949 6.9449C29.9858 6.97561 29.8795 7.00911 29.776 7.03982L29.6669 7.07611C29.4627 7.13753 29.2698 7.19894 29.0852 7.25757C28.9901 7.28549 28.8894 7.3162 28.7915 7.3469C28.7132 7.37203 28.6404 7.39716 28.5705 7.41949C28.33 7.49487 28.1174 7.56745 27.9216 7.63166C27.5832 7.74332 27.3035 7.84103 27.0714 7.92478C26.8029 8.02249 26.5791 8.10624 26.4057 8.17603C26.3833 8.18441 26.3609 8.19558 26.3414 8.20395L26.3162 8.21512C26.3106 8.21512 26.3078 8.21791 26.3022 8.2207C26.2015 8.26258 26.126 8.29887 26.07 8.32679L20.6244 9.32342C20.6216 9.32342 20.616 9.32342 20.6104 9.32621C20.602 9.32621 19.335 9.57188 15.4556 9.57188H15.0753C11.5707 9.55513 9.5401 9.01354 9.00309 8.84604C8.74297 8.76787 8.48286 8.72879 8.22554 8.72879C8.19757 8.72879 8.1696 8.72879 8.14163 8.73158C7.37247 8.7567 6.49143 8.97725 6.01595 9.0945C5.93484 9.11404 5.84533 9.13637 5.80618 9.14475C5.77821 9.14754 5.68871 9.15033 5.44537 9.15033C5.08457 9.15033 4.61748 9.14475 4.53637 9.14196C4.43288 9.13637 4.33219 9.13358 4.23429 9.13358C3.10992 9.13358 1.65551 9.51325 1.1157 11.3167L1.10451 11.3502C1.08773 11.3837 0.987039 11.5763 0.500371 12.1877C0.184316 12.5813 0.00811151 13.0754 0.00531456 13.5807C-0.00867017 15.4986 0.00811236 15.5824 0.0193001 15.6382C0.497578 18.0251 0.956275 19.9067 1.05696 20.3087C1.04298 20.7219 1.00662 22.3187 1.19961 23.0083C1.31428 23.4354 1.26114 23.6894 1.24716 23.7397C1.23877 23.762 1.23876 23.762 1.23037 23.7899C1.22758 23.8039 0.877961 25.102 0.464013 25.9311C0.0360808 26.7854 0.0752384 27.2628 0.245852 27.528L0.57589 28.4465V33.357C0.57589 33.4994 0.629031 33.6362 0.724127 33.7395L1.11011 34.161V34.5937C1.11011 34.6803 1.12969 34.764 1.16605 34.8422C1.19401 34.9287 1.23317 35.1967 1.24995 35.3838C1.26114 35.5178 1.31988 35.6434 1.41777 35.7383C1.97157 36.2743 2.84701 36.333 3.19663 36.333C3.26935 36.333 3.30851 36.3302 3.30851 36.3302C3.31969 36.3302 3.33368 36.3274 3.34487 36.3274C4.53357 36.1878 5.31671 35.5345 5.34748 35.5094C5.49572 35.3838 5.56844 35.1967 5.54606 35.0069C5.47894 34.4234 5.051 33.826 4.82166 33.5413C4.81886 33.5357 4.81886 33.5329 4.81886 33.5273C4.81886 33.5078 4.81606 33.4882 4.81326 33.4687C4.80767 33.4464 4.80487 33.4268 4.80207 33.4101C4.79648 33.371 4.78809 33.3431 4.7825 33.3235C4.73775 33.17 4.65384 33.0416 4.52798 32.9466C4.51958 32.9383 4.5084 32.9299 4.49721 32.9243C4.48602 32.9159 4.46644 32.9048 4.44407 32.8908L4.43568 32.8852C4.40771 32.8685 4.38253 32.8545 4.3182 32.7847C4.17276 32.6256 3.82594 31.8886 3.57422 31.2577V29.0076L3.94901 28.212C3.97697 28.1561 3.99376 28.0919 3.99935 28.0277C4.09725 27.0925 5.8761 25.2221 6.97251 24.2617C6.98369 24.2533 6.99208 24.245 7.00047 24.2366L7.00327 24.2338C7.08997 24.1473 7.16829 24.0858 7.22983 24.0468C7.27458 24.0188 7.31094 23.9993 7.3417 23.9881L7.95983 24.7754C7.93745 25.3058 7.88151 26.59 7.88151 26.8384C7.88151 27.2321 8.11366 27.7234 8.18358 27.8658C8.22274 27.9439 8.28148 28.0109 8.3514 28.064C8.84366 28.4353 9.92048 30.3197 10.5666 31.6094L10.5834 32.6954C10.5834 32.8657 10.6617 33.0248 10.7931 33.1309C11.2378 33.4882 11.3833 34.1359 11.3833 34.1443C11.4113 34.2671 11.4784 34.3816 11.5763 34.4653C12.1133 34.912 12.9692 34.979 13.4307 34.979C13.5537 34.979 13.6292 34.9734 13.6292 34.9734C14.8543 34.9092 15.5172 33.96 15.5451 33.9182C15.6318 33.7897 15.6626 33.6334 15.6318 33.4827C15.6011 33.3375 15.5172 33.2119 15.3969 33.1281C15.2906 33.0388 14.9746 32.6535 14.7228 32.3241C14.4068 31.6457 14.0879 31.3805 13.867 31.2744C12.3874 30.2415 11.7497 27.6397 11.7413 27.6145C11.7385 27.5922 11.7301 27.5727 11.7245 27.5531C11.6882 27.4526 11.663 27.3717 11.6406 27.2991C11.6406 27.2935 11.6378 27.2907 11.6378 27.2851C11.6098 27.1958 11.5875 27.112 11.5707 27.0311C11.5679 27.0255 11.5679 27.0227 11.5679 27.0171C11.5539 26.9697 11.5455 26.9222 11.5371 26.8775L11.5343 26.8608C11.5259 26.8133 11.5175 26.7659 11.5119 26.7184C11.442 26.2047 11.5119 25.8334 11.6042 25.585C11.7469 25.6464 11.9063 25.7022 12.0713 25.7581C12.0825 25.7609 12.0909 25.7664 12.0965 25.7692C12.1021 25.7692 12.1049 25.772 12.1049 25.772C12.8825 26.0289 13.8614 26.2299 14.6473 26.3666C15.2459 26.4727 15.85 26.5174 16.4569 26.5006H16.4653C16.6751 26.4951 16.8709 26.4895 17.0471 26.4811H17.0611C17.5701 26.456 18.082 26.4504 18.591 26.4671C19.3658 26.4895 20.1377 26.5928 20.8901 26.7826C22.0173 27.0702 22.9515 27.4079 23.1724 27.6285C23.3179 28.332 23.6339 29.471 23.729 29.8116C23.6339 31.1683 23.7989 31.8802 24.0227 32.2487L23.9919 34.3118C23.9667 35.0627 23.8353 35.8137 23.7682 36.1431C23.2843 36.6177 23.2395 37.19 23.2983 37.4748C23.3262 37.5976 23.3934 37.712 23.4941 37.793L23.7877 38.0387L23.7514 38.6445C23.7486 38.7254 23.7598 38.8036 23.7877 38.879C24.0702 39.6271 24.8841 39.87 24.9764 39.8951C25.0268 39.9091 25.0771 39.9175 25.1303 39.9175H26.7301C26.7665 39.9175 26.8056 39.9119 26.842 39.9063L26.8588 39.9035C26.8868 39.8979 26.9147 39.8924 26.9427 39.884C28.2433 39.616 28.5761 38.7198 28.6097 38.6166C28.6796 38.41 28.6237 38.1783 28.4642 38.0275C28.2992 37.8684 28.1678 37.7176 28.0643 37.5781C28.1594 37.5836 28.2601 37.5836 28.3635 37.5836C28.4782 37.5836 28.5537 37.5808 28.5537 37.5808C28.5957 37.5808 28.6404 37.5753 28.6824 37.5641C28.7663 37.539 28.8558 37.5138 28.9509 37.4775C28.9873 37.4664 29.0236 37.4524 29.0572 37.4385C29.06 37.4385 29.0628 37.4357 29.0656 37.4357C29.1103 37.4161 29.1523 37.3994 29.1998 37.3743C29.239 37.3547 29.2754 37.3352 29.3117 37.3156C29.3173 37.3156 29.3229 37.3128 29.3257 37.31C29.4236 37.2542 29.5103 37.1984 29.5886 37.1398C29.6194 37.1146 29.6473 37.0923 29.6753 37.0672L29.6893 37.0532C29.7732 36.9834 29.8375 36.9136 29.8851 36.8578C29.9047 36.8355 29.9298 36.8075 29.9494 36.7824C29.9522 36.7796 29.9522 36.7768 29.955 36.774C29.969 36.7545 29.9802 36.7378 29.9914 36.7238C29.997 36.7182 29.9998 36.7098 30.0054 36.7043L30.0277 36.6708C30.0333 36.6596 30.0417 36.6484 30.0473 36.6373C30.0557 36.6261 30.0613 36.6149 30.0697 36.601C30.0837 36.5786 30.1032 36.5451 30.12 36.5088C30.1284 36.4921 30.1368 36.4725 30.1452 36.4558C30.148 36.453 30.148 36.4474 30.1508 36.4418C30.1592 36.4251 30.1676 36.4111 30.1732 36.3944C30.2067 36.305 30.2235 36.238 30.2291 36.2073C30.2683 35.9952 30.1844 35.7802 30.0137 35.649C29.4823 35.2442 29.1467 34.2364 29.0712 33.9154C29.0096 33.6501 28.8474 33.3375 28.7439 33.1532L28.7579 30.7943L28.9901 30.4648C29.2362 30.1103 29.3593 29.6999 29.3509 29.2728L29.3397 28.8457L30.3382 28.5693C30.3634 28.5609 30.4053 28.5442 30.4305 28.5358C30.548 28.4855 30.6598 28.4325 30.7605 28.3795L30.8109 28.3543L30.8528 28.3348L30.9619 28.2762C31.0514 28.2287 31.1269 28.1868 31.1885 28.1477C31.3087 28.0752 31.4038 28.0109 31.471 27.9579C31.4877 27.9467 31.5017 27.9356 31.5129 27.9244L35.3335 25.303C35.5909 25.1243 35.7782 24.8647 35.8677 24.5716L36.0803 23.8597C36.0971 23.8039 36.1083 23.748 36.1195 23.6922C36.2034 23.1785 36.3097 22.7207 36.4327 22.3327C36.4327 22.3299 36.4355 22.3243 36.4355 22.3187C36.4467 22.2852 36.4579 22.2545 36.4691 22.2238C36.4691 22.221 36.4719 22.2182 36.4719 22.2126C36.6397 21.7269 36.8439 21.336 37.0788 21.0541C37.0816 21.0513 37.0844 21.0485 37.0844 21.0457C37.1068 21.0206 37.1264 20.9982 37.1488 20.9759C37.1516 20.9703 37.1543 20.9675 37.1571 20.9647L37.2047 20.9173C37.2215 20.8977 37.2411 20.8782 37.2606 20.8642L37.2746 20.8503L37.2998 20.8279L37.3054 20.8224C37.311 20.8196 37.3138 20.8168 37.3166 20.814C37.3585 20.7777 37.3977 20.747 37.4368 20.7191C37.4424 20.7163 37.448 20.7107 37.4536 20.7079C37.4676 20.6995 37.4844 20.6884 37.4984 20.6772C37.5124 20.666 37.5291 20.6577 37.5431 20.6493C37.5515 20.6437 37.5627 20.6381 37.5711 20.6325C37.5907 20.6214 37.6074 20.6102 37.627 20.6018C37.6382 20.5962 37.6494 20.5907 37.6606 20.5823C37.669 20.5767 37.6774 20.5739 37.6858 20.5683C37.6942 20.5655 37.6997 20.5627 37.7081 20.5599L37.7361 20.546C37.7417 20.5432 37.7501 20.5404 37.7585 20.5348C37.7697 20.5292 37.7865 20.5237 37.8004 20.5153L37.8172 20.5097C37.8228 20.5069 37.8256 20.5069 37.8312 20.5041C37.9627 20.4511 38.0941 20.4092 38.22 20.3673C38.3514 20.3254 38.4745 20.2864 38.5976 20.2333C38.6255 20.2222 38.6507 20.211 38.6703 20.1998C38.7598 20.1579 38.8381 20.1105 38.9164 20.0519C38.9192 20.0491 38.9248 20.0463 38.9276 20.0463C39.0842 19.9206 39.5989 19.7615 40.5247 19.7141C40.961 19.6917 41.3721 19.5382 41.719 19.273L42.7398 18.4857C42.7622 18.4662 42.7846 18.4466 42.807 18.4243C42.8238 18.4076 42.8377 18.3908 42.8517 18.3768C42.8601 18.3713 42.8685 18.3629 42.8769 18.3573C42.9049 18.3294 42.93 18.3098 42.9608 18.2903C42.9804 18.2791 42.9972 18.2736 43.0056 18.2708C43.1902 18.3461 44.0432 18.5164 44.7257 18.6448C44.9103 18.6784 45.0753 18.6951 45.2347 18.6951C45.3102 18.6951 45.3913 18.6923 45.4725 18.6839C45.6151 18.6672 45.741 18.6421 45.8584 18.6058C45.8976 18.5946 45.9368 18.5834 45.9731 18.5695C46.2528 18.469 46.5017 18.3098 46.7115 18.0977C46.9101 17.8967 47.036 17.6901 47.1115 17.5421L47.6037 17.2965C47.9645 17.115 48.1995 16.7577 48.2247 16.3613L48.2498 15.9285C48.2526 15.9034 48.2554 15.8839 48.261 15.8643C48.2638 15.8532 48.2666 15.8476 48.2666 15.8448C48.2862 15.8252 48.303 15.8057 48.317 15.7862C48.4792 15.5768 48.5239 15.2948 48.4512 14.9487Z" fill="black"/>
<path d="M39.9679 6.66029C39.94 6.825 39.8365 6.97017 39.6882 7.05392C39.5036 7.15721 39.2799 7.26051 39.0058 7.37496L38.8519 7.43638L38.8268 7.44755C38.6394 7.52013 38.466 7.58434 38.3121 7.63738C38.2534 7.65692 38.1919 7.66809 38.1303 7.66809C37.9429 7.66809 37.7639 7.57317 37.6576 7.41126C36.5836 5.72787 36.2396 4.02215 36.634 2.34156C36.6368 2.33318 36.6396 2.32481 36.6396 2.31643C36.757 1.82231 36.9416 1.33097 37.1934 0.853592C37.2912 0.663757 37.4842 0.55209 37.6884 0.55209C37.7388 0.55209 37.7891 0.557673 37.8394 0.571631C38.094 0.644216 38.2618 0.881508 38.2478 1.14393C38.0828 3.79323 39.1708 5.44591 39.8365 6.19687C39.9483 6.3225 39.9959 6.49279 39.9679 6.66029Z" fill="black"/>
<path d="M39.4171 6.56524C39.2465 6.66016 39.0367 6.75787 38.7934 6.85837L38.6787 6.90583C38.6591 6.9142 38.6423 6.91978 38.6228 6.92816C38.4438 6.99795 38.2759 7.05937 38.1305 7.10962C36.9809 5.31178 36.8803 3.72052 37.1851 2.44751V2.44472C37.3026 1.9478 37.4844 1.50113 37.6886 1.11029C37.5124 3.93547 38.6703 5.72215 39.4171 6.56524Z" fill="black"/>
<path d="M39.4171 6.56524C39.2465 6.66016 39.0367 6.75787 38.7934 6.85837L38.6787 6.90583C38.6591 6.9142 38.6423 6.91978 38.6228 6.92816C38.4438 6.99795 38.2759 7.05937 38.1305 7.10962C36.9809 5.31178 36.8803 3.72052 37.1851 2.44751V2.44472C37.3026 1.9478 37.4844 1.50113 37.6886 1.11029C37.5124 3.93547 38.6703 5.72215 39.4171 6.56524Z" fill="white"/>
<path d="M38.6228 6.92816C38.4438 6.99795 38.2759 7.05937 38.1305 7.10962C36.9809 5.31177 36.8803 3.72052 37.1851 2.44751C37.1739 2.87743 37.2047 3.33247 37.2998 3.79868L37.7361 5.94828L37.8032 4.6976C37.9711 5.50161 38.2312 6.38099 38.6228 6.92816Z" fill="#D1CFCF"/>
<path d="M72.2469 17.242C72.2469 14.668 70.2009 12.6 67.6709 12.6H60.1689V28H64.2169V21.862H65.7789L68.6829 28H72.8849L69.7609 21.356C71.2349 20.586 72.2469 19.024 72.2469 17.242ZM66.2409 14.58C67.0769 14.58 67.7589 15.768 67.7589 17.242C67.7589 18.694 67.0769 19.882 66.2409 19.882H64.2169V14.58H66.2409ZM82.2588 12.226C77.8808 12.226 74.3168 15.834 74.3168 20.3C74.3168 24.744 77.8808 28.374 82.2588 28.374C86.6368 28.374 90.2008 24.744 90.2008 20.3C90.2008 15.834 86.6368 12.226 82.2588 12.226ZM82.2588 26.196C80.3668 26.196 78.8048 23.556 78.8048 20.3C78.8048 17.044 80.3668 14.404 82.2588 14.404C84.1728 14.404 85.7128 17.044 85.7128 20.3C85.7128 23.556 84.1728 26.196 82.2588 26.196ZM92.8466 12.6V28H98.6326C102.967 28 106.201 24.7 106.201 20.234C106.201 15.834 103.033 12.6 98.6326 12.6H92.8466ZM96.9166 26.02V14.58H98.6106C100.371 14.58 101.713 17.066 101.713 20.3C101.713 23.534 100.371 26.02 98.6106 26.02H96.9166ZM112.901 21.29H116.267V19.31H112.901V14.58H119.127V12.6H108.831V28H119.567V26.02H112.901V21.29ZM128.278 12.226C123.9 12.226 120.336 15.834 120.336 20.3C120.336 24.744 123.9 28.374 128.278 28.374C132.656 28.374 136.22 24.744 136.22 20.3C136.22 15.834 132.656 12.226 128.278 12.226ZM128.278 26.196C126.386 26.196 124.824 23.556 124.824 20.3C124.824 17.044 126.386 14.404 128.278 14.404C130.192 14.404 131.732 17.044 131.732 20.3C131.732 23.556 130.192 26.196 128.278 26.196ZM146.02 28H150.09V21.862H153.918V19.882H150.09V14.58H156.272V12.6H146.02V28ZM162.439 28V12.6H158.369V28H162.439ZM169.406 12.6H165.072V28H167.228V17.242L173.696 28H177.436V12.6H175.28V22.39L169.406 12.6ZM179.298 28H181.608L182.95 23.996H187.592L188.912 28H193.224L187.834 12.6H184.688L179.298 28ZM185.26 16.978L186.932 22.016H183.61L185.26 16.978ZM199.42 12.6H195.086V28H197.242V17.242L203.71 28H207.45V12.6H205.294V22.39L199.42 12.6ZM218.618 26.196C216.088 26.218 214.35 23.82 214.35 20.256C214.35 16.714 216.044 14.404 218.662 14.404C219.938 14.404 221.06 14.932 222.006 15.966L223.524 14.294C222.402 13.062 220.18 12.226 218.002 12.226C213.47 12.226 209.862 15.79 209.862 20.278C209.862 24.766 213.448 28.374 217.914 28.374C220.466 28.374 222.622 27.208 223.722 25.25L222.072 24.106C221.192 25.47 220.004 26.196 218.618 26.196ZM230.098 21.29H233.464V19.31H230.098V14.58H236.324V12.6H226.028V28H236.764V26.02H230.098V21.29Z" fill="#423F3C"/>
</svg>