<?xml version="1.0" encoding="UTF-8"?>
<!-- Created with Inkscape (http://www.inkscape.org/) -->
<svg width="62.5mm" height="52mm" version="1.1" viewBox="0 0 62.5 52" xmlns="http://www.w3.org/2000/svg">
 <defs>
  <clipPath id="clipPath34">
   <path d="M 0,595.28 H 841.89 V 0 H 0 Z"/>
  </clipPath>
  <clipPath id="clipPath154">
   <path d="M 0,595.28 H 841.89 V 0 H 0 Z"/>
  </clipPath>
 </defs>
 <g transform="matrix(.35278 0 0 -.35278 -120.76 141.48)">
  <g clip-path="url(#clipPath34)">
   <g transform="translate(493.61,376.63)">
    <path d="m0 0c-0.191-0.567-0.637-1.023-1.208-1.237-0.709-0.262-1.557-0.503-2.589-0.755l-0.578-0.132-0.095-0.025c-0.702-0.153-1.35-0.283-1.923-0.385-0.219-0.036-0.442-0.042-0.66-7e-3 -0.661 0.104-1.241 0.54-1.525 1.172-2.853 6.555-3.115 12.782-0.784 18.508 0.015 0.029 0.029 0.057 0.034 0.086 0.691 1.683 1.617 3.319 2.773 4.867 0.451 0.617 1.195 0.905 1.917 0.791 0.177-0.028 0.352-0.076 0.522-0.153 0.858-0.399 1.318-1.332 1.122-2.253-2.062-9.282 0.857-15.736 2.789-18.764 0.325-0.507 0.397-1.136 0.205-1.713"/>
   </g>
   <g transform="translate(491.72,377.28)">
    <path d="m0 0c-0.656-0.241-1.451-0.469-2.366-0.689l-0.432-0.104c-0.074-0.019-0.136-0.029-0.21-0.048-0.671-0.147-1.298-0.271-1.84-0.368-3.055 7.002-2.522 12.689-0.734 17.023l1e-3 0.01c0.693 1.693 1.584 3.172 2.523 4.441-2.2-9.898 0.892-16.866 3.058-20.265"/>
    <path d="m0 0c-0.656-0.241-1.451-0.469-2.366-0.689l-0.432-0.104c-0.074-0.019-0.136-0.029-0.21-0.048-0.671-0.147-1.298-0.271-1.84-0.368-3.055 7.002-2.522 12.689-0.734 17.023l1e-3 0.01c0.693 1.693 1.584 3.172 2.523 4.441-2.2-9.898 0.892-16.866 3.058-20.265" fill="#fff"/>
   </g>
   <g transform="translate(488.71,376.44)">
    <path d="m0 0c-0.671-0.147-1.298-0.271-1.84-0.368-3.055 7.003-2.522 12.689-0.734 17.023-0.28-1.515-0.426-3.142-0.35-4.845l0.34-7.849 0.936 4.388c0.143-2.938 0.571-6.195 1.648-8.349" fill="#d1cfcf"/>
   </g>
   <g transform="translate(516.5,345.57)">
    <path d="m0 0c-0.16 0.78-0.8 1.42-1.48 1.89l-0.33 0.24c-0.32 0.23-0.64 0.47-0.95 0.72-0.99 0.79-1.92 1.65-2.75 2.61l-7.7 8.99s-0.55 5.96-5.11 9.83c-4.55 3.87-4.73 5.78-4.73 5.78-1.28 2.31-4.67 3.69-4.67 3.69-1.59 0.42-3.27 0.6-4.88 0.65-4.14 0.11-7.75-0.68-7.75-0.68l0.03-0.03c-1.88-0.52-3.66-1.02-5.36-1.5h-0.01c-0.32-0.09-0.63-0.17-0.94-0.26-1.2-0.34-2.34-0.67-3.44-0.98-5.08-1.44-9.22-2.67-12.59-3.7-0.52-0.15-1.02-0.3-1.5-0.45-0.87-0.27-1.69-0.53-2.46-0.77-0.36-0.11-0.71-0.22-1.05-0.33-0.27-0.09-0.54-0.17-0.8-0.26-0.84-0.27-1.59-0.52-2.28-0.74-1.2-0.41-2.19-0.75-3-1.04-1.03-0.37-1.78-0.66-2.31-0.88-0.12-0.04-0.22-0.09-0.32-0.13-0.78-0.34-0.94-0.46-0.94-0.46l-19.8-3.62s-0.11-0.02-0.35-0.06c-0.09-0.02-0.21-0.03-0.35-0.05-0.13-0.02-0.29-0.04-0.48-0.07-0.18-0.02-0.39-0.05-0.62-0.07-0.13-0.02-0.27-0.03-0.41-0.04-0.36-0.05-0.78-0.09-1.25-0.13-0.2-0.02-0.4-0.03-0.61-0.04-0.34-0.03-0.7-0.06-1.09-0.09-0.24-0.02-0.49-0.03-0.75-0.04-0.41-0.03-0.85-0.06-1.32-0.08-2.83-0.15-6.63-0.26-11.62-0.26h-1.37c-2.75 0.01-5.26 0.11-7.52 0.27-0.32 0.02-0.64 0.05-0.95 0.07-0.31 0.03-0.62 0.05-0.92 0.08-3.13 0.28-5.72 0.66-7.77 1.04-1.12 0.21-2.09 0.42-2.89 0.62-0.14 0.03-0.28 0.07-0.41 0.1-0.79 0.19-1.41 0.37-1.85 0.51-0.52 0.16-1.06 0.26-1.6 0.3-0.19 0.02-0.38 0.03-0.57 0.03-0.08 0-0.16 0-0.24-0.01-3.34-0.11-7.64-1.42-8.17-1.47-0.61-0.06-4.85 0-4.85 0-0.35 0.02-0.69 0.03-1.01 0.03-0.23 0-0.46-0.01-0.68-0.02-0.26-0.01-0.51-0.03-0.74-0.05-0.4-0.04-0.78-0.09-1.14-0.17-0.17-0.03-0.34-0.06-0.49-0.11-0.39-0.09-0.76-0.2-1.1-0.33-0.16-0.06-0.31-0.12-0.46-0.19-1.5-0.65-2.51-1.6-3.2-2.55-0.14-0.19-0.26-0.38-0.37-0.56-0.17-0.28-0.32-0.55-0.44-0.82-0.04-0.08-0.08-0.17-0.11-0.25-0.11-0.25-0.2-0.48-0.27-0.69-0.04-0.14-0.09-0.27-0.12-0.38-0.02-0.06-0.04-0.11-0.05-0.16-0.04-0.1-0.06-0.19-0.08-0.26-0.22-0.69-1.49-2.36-2.51-3.64-0.85-1.06-1.31-2.36-1.32-3.72-0.02-2.62-0.03-6.76 0.01-6.97 0.18-0.91 0.36-1.79 0.54-2.65 0.06-0.28 0.11-0.57 0.17-0.85 0.25-1.14 0.48-2.24 0.7-3.27 0.22-1 0.43-1.95 0.62-2.82 0.06-0.23 0.11-0.45 0.15-0.66 0.02-0.07 0.04-0.13 0.05-0.2 0.13-0.57 0.25-1.12 0.37-1.62 0.01-0.02 0.01-0.05 0.02-0.07 0.03-0.17 0.07-0.33 0.11-0.48v-0.02c0.1-0.41 0.19-0.79 0.27-1.15 0.01-0.02 0.01-0.04 0.02-0.06 0.02-0.09 0.04-0.17 0.06-0.25v-0.01c0.01-0.05 0.02-0.09 0.03-0.13 0.01-0.07 0.03-0.13 0.05-0.19 0-0.04 0.01-0.07 0.02-0.1 0.09-0.39 0.17-0.72 0.24-1.02 0.02-0.08 0.04-0.15 0.06-0.23 0.17-0.73 0.27-1.12 0.27-1.12s-0.06-1.95-0.03-4.15c0.01-0.44 0.02-0.9 0.04-1.34 0.02-0.61 0.05-1.2 0.1-1.75 0-0.05 0.01-0.09 0.01-0.14 0.02-0.16 0.03-0.31 0.05-0.46 0.05-0.4 0.1-0.76 0.16-1.07 0.03-0.15 0.06-0.3 0.1-0.43 0.68-2.46 0.13-3.88 0.13-3.88s-1.3-4.85-2.9-8.05c-1.59-3.2-0.79-3.81-0.79-3.81l1.41-3.94v-17.94l1.91-2.09v-2.34c0.3-0.55 0.49-2.64 0.49-2.64 0.12-0.11 0.24-0.22 0.37-0.31 0.01-0.01 0.01-0.02 0.02-0.02 0.06-0.05 0.14-0.09 0.21-0.14 0.16-0.11 0.33-0.21 0.5-0.29 0.32-0.16 0.67-0.29 1.01-0.39 0.14-0.04 0.29-0.08 0.43-0.12 0.27-0.06 0.52-0.11 0.77-0.15 0.24-0.04 0.48-0.07 0.69-0.09 0.39-0.03 0.71-0.04 0.93-0.04 0.19 0 0.29 0.01 0.29 0.01 3.69 0.43 6.09 2.46 6.09 2.46-0.25 2.09-2.55 4.67-2.55 4.67-0.02 0.25-0.03 0.45-0.05 0.6-0.01 0.06-0.02 0.11-0.02 0.15-0.01 0.08-0.02 0.15-0.04 0.21 0 0.03 0 0.05-0.01 0.07-0.04 0.16-0.1 0.23-0.19 0.3-0.02 0.02-0.05 0.04-0.08 0.05-0.17 0.11-0.46 0.25-0.94 0.78-1.17 1.28-3.19 6.45-3.19 6.45v8.91l1.53 3.26c0.56 5.41 11.32 14.81 11.32 14.81 0.08 0.08 0.15 0.15 0.23 0.22 0.23 0.22 0.44 0.4 0.65 0.55 0.22 0.16 0.43 0.3 0.64 0.4 0 0 0.01 0 0.02 0.01 0.35 0.18 0.66 0.29 0.94 0.33 0.1 0.02 0.19 0.03 0.27 0.03 0.05 0.01 0.09 0.01 0.13 0.01 0.6 0 0.93-0.26 0.93-0.26l0.15-0.2 1.81-2.3 1.17-1.49s-0.31-7.01-0.31-8.06c0-1.04 0.87-2.76 0.87-2.76 3.01-2.27 8.72-13.83 8.72-13.83l0.07-4.36c2.21-1.79 2.82-4.8 2.82-4.8 0.84-0.7 2.08-1.05 3.2-1.21 0.22-0.03 0.43-0.06 0.64-0.08 1.15-0.12 2.06-0.06 2.06-0.06 3.45 0.18 5.29 2.89 5.29 2.89-0.68 0.43-3.01 3.5-3.01 3.5-1.23 2.76-2.28 3.01-2.28 3.01-6.15 4.12-8.6 14.45-8.6 14.45-0.13 0.36-0.25 0.71-0.34 1.05-0.12 0.37-0.21 0.73-0.29 1.08-0.05 0.22-0.09 0.44-0.13 0.65s-0.08 0.42-0.11 0.63c-0.04 0.3-0.07 0.59-0.09 0.87-0.19 2.36 0.36 3.99 0.88 4.95 0.12 0.25 0.25 0.45 0.36 0.61 0 0.01 0.02 0.02 0.02 0.04 0.07 0.1 0.13 0.18 0.18 0.25 0.03 0.03 0.05 0.06 0.07 0.09 0.03 0.03 0.05 0.07 0.09 0.09 0 0.01 0.01 0.02 0.02 0.02 0.01 0.02 0.03 0.04 0.04 0.06 0.15-0.06 0.3-0.13 0.44-0.2 0.46-0.2 0.89-0.4 1.26-0.58 0.25-0.12 0.47-0.22 0.67-0.31 0.19-0.09 0.36-0.15 0.48-0.19 0.09-0.03 0.15-0.05 0.25-0.08 0.09-0.02 0.13-0.03 0.13-0.03l-0.04-0.12c3.48-1.11 8.38-1.91 10.83-2.27 0.16-0.02 0.32-0.05 0.46-0.07 0.21-0.03 0.39-0.06 0.55-0.08 0.07-0.01 0.14-0.02 0.2-0.03s0.11-0.01 0.15-0.02c0.1-0.02 0.14-0.02 0.14-0.02s3.68 0.43 5.97 0.37l8.11-0.25s13.95-2.64 14.51-5.47c0.55-2.82 2.09-8.23 2.09-8.23-0.56-7.26 1.04-8.24 1.04-8.24l-0.12-8.12c-0.12-3.87-0.98-7.62-0.98-7.62-1.91-1.47-1.54-3.26-1.54-3.26l1.85-1.53-0.19-3.2c0.68-1.78 2.89-2.4 2.89-2.4h5.72c0.1 0.02 0.2 0.04 0.3 0.07 3.67 0.74 4.49 3.19 4.49 3.19-0.92 0.88-1.59 1.72-2.08 2.46-0.05 0.07-0.09 0.14-0.14 0.22-0.52 0.82-0.82 1.51-0.99 2.02 0 0.02-0.01 0.03-0.02 0.05-0.19 0.62-0.21 0.97-0.21 0.97 0.19-0.1 0.43-0.19 0.7-0.26 0.08-0.02 0.16-0.04 0.25-0.06v-0.01c0.29-0.06 0.61-0.11 0.93-0.15 0.06-0.01 0.13-0.02 0.19-0.02 0.03-0.01 0.07-0.01 0.1-0.02 0.77-0.07 1.56-0.1 2.12-0.1h0.2c0.37 0 0.61 0.01 0.61 0.01 0.28 0.07 0.54 0.15 0.78 0.24 0.12 0.04 0.23 0.08 0.33 0.12 0.13 0.06 0.24 0.11 0.36 0.17 0.13 0.06 0.24 0.12 0.36 0.18 0.26 0.15 0.5 0.3 0.71 0.46 0.1 0.08 0.19 0.16 0.27 0.23 0.19 0.16 0.35 0.33 0.48 0.49 0.06 0.06 0.11 0.13 0.16 0.19 0.04 0.05 0.07 0.1 0.11 0.15 0.02 0.04 0.05 0.08 0.08 0.12 0.03 0.05 0.06 0.09 0.08 0.14 0.04 0.06 0.08 0.13 0.11 0.19s0.05 0.11 0.07 0.16l0.06 0.12c0.07 0.19 0.09 0.29 0.09 0.29-2.58 1.97-3.87 6.33-4.11 7.38-0.25 1.04-1.23 2.64-1.23 2.64l0.06 9.65 1.19 1.7c0.62 0.9 0.94 1.96 0.92 3.05l-0.02 0.76-0.02 0.65v0.09l-0.04 1.62 0.06 0.02 1.68 0.46 3.36 0.93c0.22 0.1 0.41 0.19 0.6 0.27 0.19 0.09 0.37 0.17 0.53 0.26 0.06 0.03 0.12 0.07 0.18 0.09 0.05 0.03 0.1 0.06 0.16 0.08 0.11 0.06 0.2 0.11 0.31 0.17 0.23 0.12 0.43 0.23 0.6 0.33 0.06 0.03 0.11 0.06 0.15 0.09 0.07 0.04 0.14 0.09 0.2 0.13 0.56 0.35 0.78 0.55 0.78 0.55l11.74 8.08 2 1.38c0.53 0.36 0.93 0.89 1.11 1.51l0.77 2.56c0.03 0.12 0.06 0.24 0.08 0.36 0.11 0.63 0.21 1.23 0.33 1.8 0.02 0.11 0.05 0.22 0.07 0.34 0.42 2.01 0.94 3.65 1.52 4.98 0.1 0.22 0.2 0.44 0.3 0.65 0.73 1.52 1.54 2.6 2.36 3.39 0.06 0.06 0.12 0.12 0.19 0.18 0.32 0.29 0.64 0.54 0.96 0.75 0.13 0.1 0.26 0.18 0.38 0.25 0.13 0.08 0.25 0.15 0.37 0.21s0.25 0.13 0.38 0.18c0.08 0.05 0.15 0.08 0.22 0.11 0.04 0.02 0.09 0.04 0.14 0.06 0.02 0.01 0.05 0.02 0.07 0.03l0.06 0.03c0.07 0.03 0.14 0.06 0.21 0.08 1.33 0.52 2.5 0.72 3.23 1.28 1.48 1.16 4.83 1.51 6.86 1.62 1.14 0.06 2.23 0.46 3.13 1.16l3.18 2.45 0.47 0.37c0.08 0.08 0.16 0.17 0.24 0.24 0.02 0.03 0.05 0.05 0.07 0.07 0.24 0.23 0.47 0.39 0.68 0.52 0.64 0.37 1.19 0.39 1.53 0.34h0.01c0.2-0.04 0.34-0.09 0.39-0.12 0.02-0.01 0.03-0.01 0.03-0.01s0.62-0.24 5.78-1.23c0.51-0.09 0.98-0.14 1.42-0.14 0.69 0 1.28 0.1 1.81 0.28 0.05 0.01 0.11 0.03 0.16 0.05s0.11 0.04 0.16 0.07c0.34 0.13 0.64 0.29 0.91 0.48 0.13 0.08 0.25 0.17 0.36 0.26 0.16 0.13 0.31 0.26 0.45 0.4 0.54 0.55 0.89 1.13 1.08 1.53 0.05 0.09 0.09 0.17 0.12 0.24 0.07 0.17 0.11 0.27 0.11 0.27l2.42 1.22c0.63 0.32 1.05 0.94 1.09 1.64l0.09 1.55c0.02 0.24 0.06 0.48 0.13 0.7 0.09 0.34 0.26 0.64 0.49 0.89 0.01 0 0.02 0.01 0.02 0.03 0.17 0.19 0.28 0.58 0.12 1.35"/>
   </g>
   <g transform="translate(516.38,344.22)">
    <path d="m0 0c0-0.02-0.01-0.03-0.02-0.03-0.23-0.25-0.4-0.55-0.49-0.89-0.07-0.22-0.11-0.46-0.13-0.7l-0.09-1.55c-0.04-0.7-0.46-1.32-1.09-1.64l-2.42-1.22s-0.04-0.1-0.11-0.27c-0.03-0.07-0.07-0.15-0.12-0.24-0.19-0.4-0.54-0.98-1.08-1.53-0.14-0.14-0.29-0.27-0.45-0.4-0.11-0.09-0.23-0.18-0.36-0.26-0.27-0.19-0.57-0.35-0.91-0.48-0.05-0.03-0.11-0.05-0.16-0.07s-0.11-0.04-0.16-0.05c-0.53-0.18-1.12-0.28-1.81-0.28-0.44 0-0.91 0.05-1.42 0.14-5.16 0.99-5.78 1.23-5.78 1.23s-0.01 0-0.03 0.01c-0.05 0.03-0.19 0.08-0.39 0.12h-0.01c-0.34 0.05-0.89 0.03-1.53-0.34-0.21-0.13-0.44-0.29-0.68-0.52-0.02-0.02-0.05-0.04-0.07-0.07-0.08-0.07-0.16-0.16-0.24-0.24l-0.47-0.37-3.18-2.45c-0.9-0.7-1.99-1.1-3.13-1.16-2.03-0.11-5.38-0.46-6.86-1.62-0.73-0.56-1.9-0.76-3.23-1.28-0.07-0.02-0.14-0.05-0.21-0.08l-0.06-0.03c-0.02-0.01-0.05-0.02-0.07-0.03-0.05-0.02-0.1-0.04-0.14-0.06-0.07-0.03-0.14-0.06-0.22-0.11-0.13-0.05-0.26-0.12-0.38-0.18s-0.24-0.13-0.37-0.21c-0.12-0.07-0.25-0.15-0.38-0.25-0.32-0.21-0.64-0.46-0.96-0.75-0.07-0.06-0.13-0.12-0.19-0.18-0.82-0.79-1.63-1.87-2.36-3.39-0.1-0.21-0.2-0.43-0.3-0.65-0.58-1.33-1.1-2.97-1.52-4.98-0.02-0.12-0.05-0.23-0.07-0.34-0.12-0.57-0.22-1.17-0.33-1.8-0.02-0.12-0.05-0.24-0.08-0.36l-0.77-2.56c-0.18-0.62-0.58-1.15-1.11-1.51l-2-1.38-11.74-8.08s-0.22-0.2-0.78-0.55c-0.06-0.04-0.13-0.09-0.2-0.13-0.04-0.03-0.09-0.06-0.15-0.09-0.17-0.1-0.37-0.21-0.6-0.33-0.11-0.06-0.2-0.11-0.31-0.17-0.06-0.02-0.11-0.05-0.16-0.08-0.06-0.02-0.12-0.06-0.18-0.09-0.16-0.09-0.34-0.17-0.53-0.26-0.19-0.08-0.38-0.17-0.6-0.27l-3.36-0.93-1.68-0.46-0.06-0.02 0.04-1.62v-0.09l0.02-0.65 0.02-0.76c0.02-1.09-0.3-2.15-0.92-3.05l-1.19-1.7-0.06-9.65s0.98-1.6 1.23-2.64c0.24-1.05 1.53-5.41 4.11-7.38 0 0-0.02-0.1-0.09-0.29l-0.06-0.12c-0.02-0.05-0.04-0.1-0.07-0.16s-0.07-0.13-0.11-0.19c-0.02-0.05-0.05-0.09-0.08-0.14-0.03-0.04-0.06-0.08-0.08-0.12-0.04-0.05-0.07-0.1-0.11-0.15-0.05-0.06-0.1-0.13-0.16-0.19-0.13-0.16-0.29-0.33-0.48-0.49-0.08-0.07-0.17-0.15-0.27-0.23-0.21-0.16-0.45-0.31-0.71-0.46-0.12-0.06-0.23-0.12-0.36-0.18-0.12-0.06-0.23-0.11-0.36-0.17-0.1-0.04-0.21-0.08-0.33-0.12-0.24-0.09-0.5-0.17-0.78-0.24 0 0-0.24-0.01-0.61-0.01h-0.2c-0.56 0-1.35 0.03-2.12 0.1-0.03 0.01-0.06 0.01-0.09 0.01h-0.01c-0.06 0.01-0.13 0.02-0.19 0.03-0.32 0.04-0.64 0.09-0.93 0.15-0.09 0.02-0.17 0.04-0.25 0.07-0.27 0.07-0.51 0.16-0.7 0.26 0 0 0.02-0.35 0.21-0.97 0.01-0.02 0.02-0.03 0.02-0.05 0.17-0.51 0.47-1.2 0.99-2.02 0.05-0.08 0.09-0.15 0.14-0.22 0.49-0.74 1.16-1.58 2.08-2.46 0 0-0.82-2.45-4.49-3.19-0.1-0.03-0.2-0.05-0.3-0.07h-5.72s-2.21 0.62-2.89 2.4l0.19 3.2-1.85 1.53s-0.37 1.79 1.54 3.26c0 0 0.86 3.75 0.98 7.62l0.12 8.12s-1.6 0.98-1.04 8.24c0 0-1.54 5.41-2.09 8.23-0.56 2.83-14.51 5.47-14.51 5.47l-8.11 0.25c-2.29 0.06-5.97-0.37-5.97-0.37s-0.04 0-0.14 0.02c-0.04 0.01-0.09 0.01-0.15 0.02s-0.13 0.02-0.2 0.03c-0.16 0.02-0.34 0.05-0.55 0.08-0.14 0.02-0.3 0.05-0.46 0.07-2.45 0.36-7.35 1.16-10.83 2.27-1.39 0.44-2.55 0.93-3.23 1.45-0.01 0-0.02-0.01-0.02-0.02-0.04-0.02-0.06-0.06-0.09-0.09-0.02-0.03-0.04-0.06-0.07-0.09-0.05-0.07-0.11-0.15-0.18-0.25 0-0.02-0.02-0.03-0.02-0.04-0.11-0.16-0.24-0.36-0.36-0.61-0.52-0.96-1.07-2.59-0.88-4.95 0.02-0.28 0.05-0.57 0.09-0.87 0.03-0.21 0.07-0.42 0.11-0.63s0.08-0.43 0.13-0.65c0.08-0.35 0.17-0.71 0.29-1.08 0.09-0.34 0.21-0.69 0.34-1.05 0 0 2.45-10.33 8.6-14.45 0 0 1.05-0.25 2.28-3.01 0 0 2.33-3.07 3.01-3.5 0 0-1.84-2.71-5.29-2.89 0 0-0.91-0.06-2.06 0.06-0.21 0.02-0.42 0.05-0.64 0.08-1.12 0.16-2.36 0.51-3.2 1.21 0 0-0.61 3.01-2.82 4.8l-0.07 4.36s-5.71 11.56-8.72 13.83c0 0-0.87 1.72-0.87 2.76 0 1.05 0.31 8.06 0.31 8.06l-1.17 1.49-1.81 2.3-0.15 0.2s-0.33 0.26-0.93 0.26c-0.04 0-0.08 0-0.13-0.01-0.08 0-0.17-0.01-0.27-0.03-0.28-0.04-0.59-0.15-0.94-0.33-0.01-0.01-0.02-0.01-0.02-0.01-0.21-0.1-0.42-0.24-0.64-0.4-0.21-0.15-0.42-0.33-0.65-0.55-0.08-0.07-0.15-0.14-0.23-0.22 0 0-10.76-9.4-11.32-14.81l-1.53-3.26v-8.91s2.02-5.17 3.19-6.45c0.48-0.53 0.77-0.67 0.94-0.78 0.03-0.01 0.06-0.03 0.08-0.05 0.09-0.07 0.15-0.14 0.19-0.3 0.01-0.02 0.01-0.04 0.01-0.07 0.02-0.06 0.03-0.13 0.04-0.21 0-0.04 0.01-0.09 0.02-0.15 0.02-0.15 0.03-0.35 0.05-0.6 0 0 2.3-2.58 2.55-4.67 0 0-2.4-2.03-6.09-2.46 0 0-0.1-0.01-0.29-0.01-0.22 0-0.54 0.01-0.93 0.04-0.21 0.02-0.45 0.05-0.69 0.09-0.25 0.04-0.5 0.09-0.77 0.15-0.14 0.04-0.29 0.08-0.43 0.12-0.34 0.1-0.69 0.23-1.01 0.39-0.17 0.08-0.34 0.18-0.5 0.29-0.07 0.05-0.15 0.09-0.21 0.14-0.01 0-0.01 0.01-0.02 0.02-0.13 0.09-0.25 0.2-0.37 0.31 0 0-0.19 2.09-0.49 2.64v2.34l-1.91 2.09v17.94l-1.41 3.94s-0.8 0.61 0.79 3.81c1.6 3.2 2.9 8.05 2.9 8.05s0.55 1.42-0.13 3.88c-0.04 0.13-0.07 0.28-0.1 0.43-0.06 0.31-0.11 0.67-0.16 1.07-0.02 0.15-0.03 0.3-0.05 0.46 0 0.05-0.01 0.09-0.01 0.14-0.05 0.55-0.08 1.14-0.1 1.75-0.02 0.44-0.03 0.9-0.04 1.34-0.03 2.2 0.03 4.15 0.03 4.15s-0.1 0.39-0.27 1.12c-0.02 0.08-0.04 0.15-0.06 0.23-0.07 0.3-0.15 0.63-0.24 1.02-0.01 0.03-0.02 0.06-0.02 0.1-0.02 0.06-0.04 0.12-0.05 0.19-0.01 0.04-0.02 0.08-0.03 0.13v0.01c-0.01 0.02-0.01 0.03-0.02 0.05-0.02 0.08-0.04 0.17-0.06 0.26-0.08 0.36-0.17 0.74-0.27 1.15v0.02l-0.01 0.01c-0.03 0.15-0.07 0.31-0.1 0.47-0.01 0.02-0.01 0.05-0.02 0.07-0.12 0.5-0.24 1.05-0.37 1.62-0.01 0.07-0.03 0.13-0.05 0.2-0.04 0.21-0.09 0.43-0.15 0.66-0.19 0.87-0.4 1.82-0.62 2.82-0.22 1.03-0.45 2.13-0.7 3.27-0.06 0.28-0.11 0.57-0.17 0.85-0.18 0.86-0.36 1.74-0.54 2.65-0.04 0.21-0.03 4.35-0.01 6.97 0.01 1.36 0.47 2.66 1.32 3.72 1.02 1.28 2.29 2.95 2.51 3.64 0.02 0.07 0.04 0.16 0.08 0.26 0.01 0.05 0.03 0.1 0.05 0.16 0.03 0.11 0.08 0.24 0.12 0.38 0.07 0.21 0.16 0.44 0.27 0.69 0.03 0.08 0.07 0.17 0.11 0.25 0.12 0.27 0.27 0.54 0.44 0.82 0.11 0.18 0.23 0.37 0.37 0.56 0.69 0.95 1.7 1.9 3.2 2.55 0.15 0.07 0.3 0.13 0.46 0.19 0.34 0.13 0.71 0.24 1.1 0.33 0.15 0.05 0.32 0.08 0.49 0.11 0.36 0.08 0.74 0.13 1.14 0.17 0.23 0.02 0.48 0.04 0.74 0.05 0.22 0.01 0.45 0.02 0.68 0.02 0.32 0 0.66-0.01 1.01-0.03 0 0 4.24-0.06 4.85 0 0.53 0.05 4.83 1.36 8.17 1.47 0.08 0.01 0.16 0.01 0.24 0.01 0.19 0 0.38-0.01 0.57-0.03 0.54-0.04 1.08-0.14 1.6-0.3 0.44-0.14 1.06-0.32 1.85-0.51 0.13-0.03 0.27-0.07 0.41-0.1 0.8-0.2 1.77-0.41 2.89-0.62 2.05-0.38 4.64-0.76 7.77-1.04 0.3-0.03 0.61-0.05 0.92-0.08 0.31-0.02 0.63-0.05 0.95-0.07 2.26-0.16 4.77-0.26 7.52-0.27h1.37c4.99 0 8.79 0.11 11.62 0.26 0.47 0.02 0.91 0.05 1.32 0.08 0.26 0.01 0.51 0.02 0.75 0.04 0.39 0.03 0.75 0.06 1.09 0.09 0.21 0.01 0.41 0.02 0.61 0.04 0.47 0.04 0.89 0.08 1.25 0.13 0.14 0.01 0.28 0.02 0.41 0.04 0.23 0.02 0.44 0.05 0.62 0.07 0.19 0.03 0.35 0.05 0.48 0.07 0.14 0.02 0.26 0.03 0.35 0.05 0.24 0.04 0.35 0.06 0.35 0.06l19.8 3.62s0.16 0.12 0.94 0.46c0.1 0.04 0.2 0.09 0.32 0.13 0.53 0.22 1.28 0.51 2.31 0.88 0.81 0.29 1.8 0.63 3 1.04 0.69 0.22 1.44 0.47 2.28 0.74 0.26 0.09 0.53 0.17 0.8 0.26 0.34 0.11 0.69 0.22 1.05 0.33 0.77 0.24 1.59 0.5 2.46 0.77 0.48 0.15 0.98 0.3 1.5 0.45 3.37 1.03 7.51 2.26 12.59 3.7 1.1 0.31 2.24 0.64 3.44 0.98 0.31 0.09 0.62 0.17 0.94 0.26h0.01c1.7 0.48 3.48 0.98 5.36 1.5l-0.03 0.03s3.61 0.79 7.75 0.68c1.1-0.28 2.91-0.65 4.63-0.65h0.25s3.39-1.38 4.67-3.69c0 0 0.18-1.91 4.73-5.78 4.56-3.87 5.11-9.83 5.11-9.83l7.7-8.99c0.83-0.96 1.76-1.82 2.75-2.61 0.31-0.25 0.63-0.49 0.95-0.72l0.33-0.24c0.68-0.47 1.32-1.11 1.48-1.89 0.16-0.77 0.05-1.16-0.12-1.35" fill="#f39c0f"/>
   </g>
   <g transform="translate(374.63,312.95)">
    <path d="m 0,0 -1.966,2.504 2.259,3.83 C 0.306,6.361 0.327,6.388 0.34,6.416 2.415,9.566 4.048,13.695 2.851,18.09 3.082,17.6 6.456,10.062 0,0" fill="#cf760e"/>
   </g>
   <g transform="translate(442.54,295.38)">
    <path d="m0 0s-1.394-25.344 3.936-28.426l-1.389-1.24s-0.472 0.142-0.661 0.17c-0.19 0.029-1.138 1.028-1.138 1.028l-1.688 3.763-0.397 0.879-0.622 5.528v3.741l0.253 3.742-0.074 0.968 0.153 1.515 0.493 3.332 0.23 1.201 0.407 1.851z" fill="#cf760e"/>
   </g>
   <g transform="translate(510.83,336.21)">
    <path d="m0 0v-0.061c-0.993-1-2.647-1.892-5.266-1.395-5.164 0.987-5.776 1.231-5.776 1.231s-0.83 0.45-1.959-0.21c-0.218-0.13-0.443-0.293-0.681-0.524-0.013 0.034-0.02 0.054-0.02 0.054l-7e-3 7e-3 -0.014 0.02c-0.088 0.123-0.462 0.626-0.578 0.694-0.122 0.089-1.36 1.531-1.612 1.449-0.252-0.088-4.409 3.504-4.667 3.722 0 7e-3 -0.803 0.769-0.905 0.871 0.19-0.027 2.81-1.123 3.401-1.545 0.626-0.455 0.681-0.68 0.967-0.68 0.279 0 2.149-0.742 2.149-0.742h1.286c0.306 0.572 0.585 0.933 0.585 0.933s0.075-2.729 0.245-3.089c0.17-0.361 7.253-1.49 8.226-1.722 1.911-0.455 4.177 0.817 4.626 0.987" fill="#cf760e"/>
   </g>
   <g transform="translate(497.14,335.25)">
    <path d="m0 0c-0.102-0.088-0.204-0.197-0.313-0.313l-0.469-0.361-3.184-2.456c-0.898-0.694-1.987-1.102-3.123-1.163-2.034-0.102-5.382-0.456-6.865-1.612-2.102-1.633-7.919-0.164-10.45-12.444-0.122-0.592-0.231-1.218-0.34-1.878-0.02-0.122-0.048-0.245-0.082-0.36l-0.769-2.558c-0.183-0.619-0.578-1.15-1.108-1.517l-2.001-1.375-11.742-8.082s-0.694-0.64-2.742-1.613c-0.231-0.115-0.49-0.231-0.762-0.353l-5.103-1.416s2.245 8.076 4.735 9.661c2.497 1.586 4.763 3.627 7.035 4.538 2.082 0.83 4.354 3.198 4.885 4.456 0.585 0.198 1.123 0.531 1.123 0.531s-0.463 0.776-0.878 1.613c0.048 0.578 0.102 1.238 0.197 1.911 0.279 0.089 0.606 0.184 0.939 0.388 0.953 0.592-0.667 1.034-0.667 1.034v0.014c0.307 1.245 0.803 2.381 1.654 2.98 2.272 1.585 1.136 2.946 2.83 3.626s1.252 0.68 3.973 0.857c2.721 0.184 3.633 2.885 3.633 2.885-3.177-0.34-7.606 0-7.606 0 4.415 5.102 20.301 8.953 20.301 8.953 0.259-0.218 4.416-3.81 4.667-3.721 0.252 0.081 1.49-1.361 1.613-1.449 0.116-0.068 0.49-0.572 0.578-0.694l0.014-0.021z" fill="#cf760e"/>
   </g>
   <g transform="translate(517.32,346.95)">
    <path d="m0 0v-3.143l-1.449-0.504s-5.014 0.456-2.123 5.117h2.123z"/>
    <path d="m0 0v-2.973c-0.789 0.122-4.13 0.857-2.32 4.443h0.871z" fill="#f39c0f"/>
   </g>
   <g transform="translate(494.99,359.92)">
    <path d="m0 0s3.349-0.907 6.142-0.326c0 0-0.695 2.707-2.183 4.918z"/>
   </g>
   <g transform="translate(349.96,331.77)">
    <path d="m0 0c0.03-0.16 0.07-0.32 0.1-0.47l0.01-0.01c-0.04 0.15-0.08 0.31-0.11 0.48m0.4-1.71c-0.01 0.02-0.01 0.04-0.02 0.06 0.02-0.09 0.04-0.18 0.06-0.26 0.01-0.02 0.01-0.03 0.02-0.05-0.02 0.08-0.04 0.16-0.06 0.25m92.53-62.75c0.08-0.03 0.16-0.05 0.25-0.07v0.01c-0.09 0.02-0.17 0.04-0.25 0.06m1.37-0.24c-0.06 0-0.13 0.01-0.19 0.02 0.06-0.01 0.13-0.02 0.19-0.03h0.01c0.03 0 0.06 0 0.09-0.01-0.03 0.01-0.07 0.01-0.1 0.02"/>
   </g>
   <g transform="translate(483.75,381.88)">
    <path d="m0 0c-0.5-0.94-0.83-1.55-0.87-1.63v-0.01c-0.73-0.07-1.61-0.18-2.48-0.3-2.12-0.3-4.22-0.68-4.22-0.68l-0.03 0.03c-0.04 0.04-0.08 0.14-0.06 0.36 0 0.04 0 0.07 0.01 0.11 0.04 0.26 0.15 0.65 0.43 1.23 0.05 0.1 0.1 0.21 0.16 0.32 0.01 0.03 0.03 0.06 0.05 0.09 0.91 0.17 2.03 0.34 3.26 0.44 1.18 0.09 2.46 0.13 3.75 0.04"/>
   </g>
   <g transform="translate(491.69,365.61)">
    <path d="m0 0s0.507-4.225 6.596-3.936c0 0-1.716 4.612-6.596 3.936" fill="#fff"/>
   </g>
   <g transform="translate(497.7,361.66)">
    <path d="m0 0c-0.17 0-0.34 0-0.5 0.02-0.17 0-0.33 0.01-0.48 0.03-0.06 0-0.12 0-0.18 0.01-0.24 0.03-0.47 0.07-0.69 0.12-0.27 0.05-0.52 0.11-0.76 0.19-0.12 0.03-0.23 0.07-0.34 0.12-0.11 0.04-0.22 0.08-0.32 0.14-0.09 0.03-0.18 0.07-0.27 0.13-0.1 0.04-0.21 0.1-0.3 0.16-0.27 0.16-0.5 0.33-0.71 0.51-0.08 0.07-0.16 0.14-0.23 0.22-0.11 0.11-0.21 0.22-0.3 0.33-0.06 0.06-0.1 0.12-0.14 0.18-0.68 0.92-0.79 1.79-0.79 1.79 0.34 0.05 0.66 0.07 0.96 0.07 0.24 0 0.48-0.01 0.7-0.04 0.11-0.01 0.22-0.03 0.33-0.05 0.26-0.04 0.51-0.1 0.74-0.18 0.1-0.03 0.2-0.06 0.29-0.1 0.9-0.34 1.6-0.88 2.14-1.44 0.06-0.06 0.12-0.12 0.18-0.19 0.11-0.12 0.21-0.25 0.31-0.37 0.09-0.13 0.18-0.25 0.26-0.36 0.08-0.12 0.15-0.23 0.22-0.34s0.13-0.21 0.17-0.31c0.03-0.05 0.06-0.09 0.07-0.13 0.16-0.3 0.23-0.49 0.23-0.49-0.2-0.01-0.4-0.02-0.59-0.02m2.61 0.3v0.02l-0.01 0.01c-0.01 0.11-0.04 0.22-0.08 0.32 0 0.01 0 0.01-0.01 0.02 0.01 0.02 0 0.04-0.01 0.06 0 0.01-0.02 0.03-0.03 0.07-0.04 0.1-0.08 0.19-0.1 0.26-0.05 0.08-0.09 0.18-0.14 0.29-0.72 1.41-2.85 4.71-7.28 4.71-0.11 0-0.22 0-0.34-0.01h-0.07c-0.27-0.01-0.55-0.04-0.83-0.08-0.66-0.09-1.21-0.49-1.51-1.04-0.2-0.36-0.29-0.78-0.23-1.22 0.2-1.64 1.58-4.49 5.33-5.44 0.79-0.2 1.69-0.31 2.7-0.31 0.1 0 0.2 0 0.31 0.01 0.12 0 0.25 0 0.38 0.01 0.06 0 0.11 0.01 0.17 0.01 0.52 0.08 1 0.35 1.33 0.77 0.04 0.04 0.07 0.08 0.1 0.13 0.18 0.27 0.29 0.57 0.32 0.88v0.01c0.03 0.17 0.02 0.35 0 0.52"/>
   </g>
   <g transform="translate(444.29,263.68)">
    <path d="m0 0s-0.053 0.029-0.156 0.085c-0.127 0.071-0.29 0.187-0.432 0.351-0.067 0.083-0.092 0.123-0.148 0.199-0.183 0.269-0.389 0.62-0.607 1.069-0.44 0.897-0.956 2.184-1.414 3.766-0.464 1.578-0.861 3.45-1.121 5.469-0.123 1.01-0.228 2.055-0.277 3.119-0.06 1.064-0.066 2.144-0.054 3.223 0.029 1.078 0.083 2.154 0.176 3.209s0.221 2.088 0.365 3.084c0.081 0.496 0.16 0.984 0.238 1.462 0.092 0.475 0.182 0.939 0.27 1.391 0.189 0.901 0.379 1.75 0.58 2.526 0.395 1.556 0.784 2.833 1.073 3.721 0.293 0.887 0.461 1.393 0.461 1.393s-0.137-0.515-0.377-1.417c-0.234-0.902-0.546-2.198-0.845-3.766-0.154-0.782-0.292-1.636-0.425-2.538-0.061-0.452-0.122-0.917-0.186-1.392-0.048-0.476-0.097-0.962-0.148-1.457-0.083-0.99-0.148-2.014-0.177-3.055s-0.019-2.097 0.015-3.152c0.052-1.053 0.12-2.105 0.241-3.133 0.109-1.029 0.271-2.034 0.448-3 0.367-1.93 0.855-3.696 1.381-5.158 0.521-1.464 1.075-2.629 1.503-3.383 0.212-0.379 0.4-0.648 0.507-0.786 0.02-0.024 0.037-0.046 0.052-0.065-0.076 0.095-0.184 0.154-0.267 0.178-0.021 5e-3 -0.041 9e-3 -0.059 0.014l0.017-9e-3c0.011-6e-3 0.02-0.01 0.027-0.014l0.022-0.011z"/>
   </g>
   <g transform="translate(369.07,314.27)">
    <path d="m0 0s0.061 0.045 0.176 0.13c0.117 0.093 0.29 0.229 0.51 0.402 0.437 0.357 1.055 0.89 1.759 1.572 1.404 1.361 3.149 3.356 4.394 5.667 0.311 0.576 0.591 1.169 0.828 1.769 0.232 0.601 0.44 1.204 0.58 1.804 0.081 0.297 0.141 0.594 0.188 0.887 0.06 0.292 0.091 0.581 0.119 0.863 0.038 0.282 0.048 0.558 0.054 0.825 0.016 0.268 0.015 0.527-2e-3 0.775-6e-3 0.499-0.078 0.951-0.126 1.356-0.073 0.399-0.147 0.748-0.212 1.034-0.165 0.564-0.259 0.886-0.259 0.886s0.125-0.313 0.343-0.861c0.093-0.28 0.2-0.623 0.313-1.021 0.087-0.403 0.204-0.858 0.259-1.367 0.042-0.253 0.067-0.519 0.078-0.795 0.02-0.276 0.036-0.563 0.025-0.857-1e-3 -0.295-5e-3 -0.599-0.039-0.907-0.02-0.31-0.053-0.626-0.108-0.944-0.087-0.641-0.243-1.292-0.428-1.946-0.189-0.653-0.423-1.305-0.693-1.941-1.077-2.556-2.711-4.825-4.055-6.402-0.675-0.79-1.275-1.418-1.711-1.848-0.224-0.213-0.399-0.381-0.519-0.496-0.128-0.115-0.197-0.177-0.197-0.177z"/>
   </g>
   <g transform="translate(476.74,381.4)">
    <path d="m0 0c0.91 0.17 2.03 0.34 3.26 0.44-1.71-1.33-3.85-2.55-3.85-2.55-0.04 0.04-0.08 0.14-0.06 0.36 0 0.04 0 0.07 0.01 0.11 0.04 0.26 0.15 0.65 0.43 1.23 0.05 0.1 0.1 0.21 0.16 0.32 0.01 0.03 0.03 0.06 0.05 0.09"/>
   </g>
   <g transform="translate(493.08,367.68)">
    <path d="m0 0s-4.054 0.397-8.107-1.644c0 0 6.349 0.907 8.107 0.567z"/>
   </g>
   <g transform="translate(499.94,363.03)">
    <path d="m0 0s1.021-2.495 1.191-3.43c0 0-0.737 0.255-3.147 0z"/>
   </g>
   <g transform="translate(500.43,361.66)">
    <path d="m0 0s0.973 1.365 0.704 2.556c0 0 0.864-2.608 0-4.621l-1.333 0.879z"/>
   </g>
   <g transform="translate(448.09,295.4)">
    <path d="m0 0s4e-3 0.058 0.013 0.167c6e-3 0.111 0.014 0.273 0.025 0.48 0.019 0.422 0.027 1.036 0.019 1.776-0.021 1.48-0.132 3.471-0.361 5.457-0.223 1.987-0.534 3.971-0.819 5.452-0.13 0.743-0.268 1.356-0.354 1.788-0.088 0.432-0.139 0.678-0.139 0.678s0.081-0.238 0.224-0.655c0.14-0.418 0.355-1.011 0.578-1.733 0.472-1.439 1.036-3.381 1.515-5.353 0.486-1.97 0.856-3.975 1.073-5.5 0.106-0.763 0.179-1.405 0.217-1.861 0.017-0.233 0.031-0.416 0.04-0.541 6e-3 -0.127 0.01-0.194 0.01-0.194z"/>
   </g>
   <g transform="translate(354.42,332.81)">
    <path d="M 0,0 C -0.041,1.102 -0.075,1.803 -0.075,1.803 0.014,1.231 0.034,0.626 0,0" fill="#cf760e"/>
   </g>
   <g transform="translate(382,364.67)">
    <path d="m0 0c-0.299-0.109-9.94-3.545-12.287-5.103-2.381-1.592-6.014-3.401-7.375-3.401s-5.211-2.273-6.803-4.082c-1.586-1.817-1.13-6.355-1.13-7.035s-0.803-5.695-0.061-10.443c0 0 0.034-0.701 0.075-1.803 0.129-3.558 0.354-11.294-0.075-12.729-0.565-1.865 0.116-7.648-1.245-10.369s-2.633-6.041-2.633-6.98c0-0.932 1.612-5.266 1.021-8.586-0.599-3.32 0.081-5.525 0-7.144-0.089-1.619 0.081-3.143 0.251-4.762s1.953-3.402 1.701-4.681c-0.252-1.272 0.442-5.728 0.442-5.728-0.762 0.224-1.53 0.585-2.115 1.149 0 0-0.184 2.089-0.49 2.647v2.334l-1.905 2.088v17.948l-1.415 3.939s-0.803 0.612 0.796 3.81c1.598 3.197 2.891 8.048 2.891 8.048s0.551 1.415-0.122 3.878c-0.313 1.143-0.436 3.266-0.463 5.191-0.034 2.198 0.034 4.15 0.034 4.15s-0.102 0.395-0.279 1.123c-0.014 0.075-0.034 0.149-0.054 0.231-0.198 0.823-0.483 2.007-0.824 3.477-0.115 0.503-0.238 1.047-0.367 1.619-0.014 0.068-0.027 0.129-0.048 0.197-0.047 0.218-0.095 0.436-0.149 0.66-0.191 0.878-0.402 1.823-0.619 2.824-0.449 2.054-0.926 4.333-1.415 6.769-0.041 0.211-0.028 4.347-7e-3 6.973 7e-3 1.354 0.469 2.661 1.32 3.722 1.013 1.272 2.286 2.946 2.503 3.633 0.368 1.163 1.722 7.007 10.26 6.511 0 0 4.245-0.061 4.857 0 0.524 0.054 4.824 1.361 8.171 1.476 0.817 0.027 1.626-0.088 2.409-0.326 0.925-0.286 2.64-0.756 5.15-1.225" fill="#cf760e"/>
   </g>
   <g transform="translate(498.8,334.14)">
    <path d="m0 0s-0.177 0.099-0.486 0.272c-0.3 0.176-0.722 0.428-1.214 0.749-0.987 0.634-2.254 1.54-3.442 2.533-0.597 0.491-1.173 1.008-1.694 1.509-0.522 0.498-0.994 0.978-1.378 1.408-0.391 0.421-0.699 0.787-0.908 1.049-0.213 0.257-0.334 0.404-0.334 0.404s0.144-0.125 0.397-0.343c0.248-0.222 0.61-0.53 1.062-0.877 0.443-0.354 0.981-0.743 1.567-1.139 0.585-0.398 1.221-0.801 1.873-1.175 1.298-0.759 2.646-1.414 3.672-1.852 0.511-0.222 0.942-0.39 1.24-0.503 0.295-0.105 0.463-0.165 0.463-0.165z"/>
   </g>
  </g>
  <g clip-path="url(#clipPath154)">
   <g transform="translate(495.66,375.49)">
    <path d="m0 0c-0.2 0.21-0.39 0.4-0.59 0.59 0.27-0.25 0.47-0.46 0.59-0.59"/>
    <path d="m0 0c-0.2 0.21-0.39 0.4-0.59 0.59 0.27-0.25 0.47-0.46 0.59-0.59"/>
   </g>
   <g transform="translate(516.38,344.22)">
    <path d="m0 0c0-0.02-0.01-0.03-0.02-0.03-0.23-0.25-0.4-0.55-0.49-0.89-0.07-0.22-0.11-0.46-0.13-0.7l-0.09-1.55c-0.04-0.7-0.46-1.32-1.09-1.64l-2.42-1.22s-0.04-0.1-0.11-0.27c-0.03-0.07-0.07-0.15-0.12-0.24-0.19-0.4-0.54-0.98-1.08-1.53-0.14-0.14-0.29-0.27-0.45-0.4-0.11-0.09-0.23-0.18-0.36-0.26-0.27-0.19-0.57-0.35-0.91-0.48-0.05-0.03-0.11-0.05-0.16-0.07s-0.11-0.04-0.16-0.05c-0.53-0.18-1.12-0.28-1.81-0.28-0.44 0-0.91 0.05-1.42 0.14-5.16 0.99-5.78 1.23-5.78 1.23s-0.01 0-0.03 0.01c-0.05 0.03-0.19 0.08-0.39 0.12h-0.01c-0.34 0.05-0.89 0.03-1.53-0.34-0.21-0.13-0.44-0.29-0.68-0.52-0.02-0.02-0.05-0.04-0.07-0.07-0.08-0.07-0.16-0.16-0.24-0.24l-0.47-0.37-3.18-2.45c-0.9-0.7-1.99-1.1-3.13-1.16-2.03-0.11-5.38-0.46-6.86-1.62-0.73-0.56-1.9-0.76-3.23-1.28-0.07-0.02-0.14-0.05-0.21-0.08l-0.06-0.03c-0.02-0.01-0.05-0.02-0.07-0.03-0.05-0.02-0.1-0.04-0.14-0.06-0.07-0.03-0.14-0.06-0.22-0.11-0.13-0.05-0.26-0.12-0.38-0.18s-0.24-0.13-0.37-0.21c-0.12-0.07-0.25-0.15-0.38-0.25-0.32-0.21-0.64-0.46-0.96-0.75-0.07-0.06-0.13-0.12-0.19-0.18-0.82-0.79-1.63-1.87-2.36-3.39-0.1-0.21-0.2-0.43-0.3-0.65-0.58-1.33-1.1-2.97-1.52-4.98-0.02-0.12-0.05-0.23-0.07-0.34-0.12-0.57-0.22-1.17-0.33-1.8-0.02-0.12-0.05-0.24-0.08-0.36l-0.77-2.56c-0.18-0.62-0.58-1.15-1.11-1.51l-2-1.38-11.74-8.08s-0.22-0.2-0.78-0.55c-0.06-0.04-0.13-0.09-0.2-0.13-0.04-0.03-0.09-0.06-0.15-0.09-0.17-0.1-0.37-0.21-0.6-0.33-0.11-0.06-0.2-0.11-0.31-0.17-0.06-0.02-0.11-0.05-0.16-0.08-0.06-0.02-0.12-0.06-0.18-0.09-0.16-0.09-0.34-0.17-0.53-0.26-0.19-0.08-0.38-0.17-0.6-0.27l-3.36-0.93-1.68-0.46-0.06-0.02 0.04-1.62v-0.09l0.02-0.65 0.02-0.76c0.02-1.09-0.3-2.15-0.92-3.05l-1.19-1.7-0.06-9.65s0.98-1.6 1.23-2.64c0.24-1.05 1.53-5.41 4.11-7.38 0 0-0.02-0.1-0.09-0.29l-0.06-0.12c-0.02-0.05-0.04-0.1-0.07-0.16s-0.07-0.13-0.11-0.19c-0.02-0.05-0.05-0.09-0.08-0.14-0.03-0.04-0.06-0.08-0.08-0.12-0.04-0.05-0.07-0.1-0.11-0.15-0.05-0.06-0.1-0.13-0.16-0.19-0.13-0.16-0.29-0.33-0.48-0.49-0.08-0.07-0.17-0.15-0.27-0.23-0.21-0.16-0.45-0.31-0.71-0.46-0.12-0.06-0.23-0.12-0.36-0.18-0.12-0.06-0.23-0.11-0.36-0.17-0.1-0.04-0.21-0.08-0.33-0.12-0.24-0.09-0.5-0.17-0.78-0.24 0 0-0.24-0.01-0.61-0.01h-0.2c-0.56 0-1.35 0.03-2.12 0.1-0.03 0.01-0.06 0.01-0.09 0.01h-0.01c-0.06 0.01-0.13 0.02-0.19 0.03-0.32 0.04-0.64 0.09-0.93 0.15-0.09 0.02-0.17 0.04-0.25 0.07-0.27 0.07-0.51 0.16-0.7 0.26 0 0 0.02-0.35 0.21-0.97 0.01-0.02 0.02-0.03 0.02-0.05 0.17-0.51 0.47-1.2 0.99-2.02 0.05-0.08 0.09-0.15 0.14-0.22 0.49-0.74 1.16-1.58 2.08-2.46 0 0-0.82-2.45-4.49-3.19-0.1-0.03-0.2-0.05-0.3-0.07h-5.72s-2.21 0.62-2.89 2.4l0.19 3.2-1.85 1.53s-0.37 1.79 1.54 3.26c0 0 0.86 3.75 0.98 7.62l0.12 8.12s-1.6 0.98-1.04 8.24c0 0-1.54 5.41-2.09 8.23-0.56 2.83-14.51 5.47-14.51 5.47l-8.11 0.25c-2.29 0.06-5.97-0.37-5.97-0.37s-0.04 0-0.14 0.02c-0.04 0.01-0.09 0.01-0.15 0.02s-0.13 0.02-0.2 0.03c-0.16 0.02-0.34 0.05-0.55 0.08-0.14 0.02-0.3 0.05-0.46 0.07-2.45 0.36-7.35 1.16-10.83 2.27-1.39 0.44-2.55 0.93-3.23 1.45-0.01 0-0.02-0.01-0.02-0.02-0.04-0.02-0.06-0.06-0.09-0.09-0.02-0.03-0.04-0.06-0.07-0.09-0.05-0.07-0.11-0.15-0.18-0.25 0-0.02-0.02-0.03-0.02-0.04-0.11-0.16-0.24-0.36-0.36-0.61-0.52-0.96-1.07-2.59-0.88-4.95 0.02-0.28 0.05-0.57 0.09-0.87 0.03-0.21 0.07-0.42 0.11-0.63s0.08-0.43 0.13-0.65c0.08-0.35 0.17-0.71 0.29-1.08 0.09-0.34 0.21-0.69 0.34-1.05 0 0 2.45-10.33 8.6-14.45 0 0 1.05-0.25 2.28-3.01 0 0 2.33-3.07 3.01-3.5 0 0-1.84-2.71-5.29-2.89 0 0-0.91-0.06-2.06 0.06-0.21 0.02-0.42 0.05-0.64 0.08-1.12 0.16-2.36 0.51-3.2 1.21 0 0-0.61 3.01-2.82 4.8l-0.07 4.36s-5.71 11.56-8.72 13.83c0 0-0.87 1.72-0.87 2.76 0 1.05 0.31 8.06 0.31 8.06l-1.17 1.49-1.81 2.3-0.15 0.2s-0.33 0.26-0.93 0.26c-0.04 0-0.08 0-0.13-0.01-0.08 0-0.17-0.01-0.27-0.03-0.28-0.04-0.59-0.15-0.94-0.33-0.01-0.01-0.02-0.01-0.02-0.01-0.21-0.1-0.42-0.24-0.64-0.4-0.21-0.15-0.42-0.33-0.65-0.55-0.08-0.07-0.15-0.14-0.23-0.22 0 0-10.76-9.4-11.32-14.81l-1.53-3.26v-8.91s2.02-5.17 3.19-6.45c0.48-0.53 0.77-0.67 0.94-0.78 0.03-0.01 0.06-0.03 0.08-0.05 0.09-0.07 0.15-0.14 0.19-0.3 0.01-0.02 0.01-0.04 0.01-0.07 0.02-0.06 0.03-0.13 0.04-0.21 0-0.04 0.01-0.09 0.02-0.15 0.02-0.15 0.03-0.35 0.05-0.6 0 0 2.3-2.58 2.55-4.67 0 0-2.4-2.03-6.09-2.46 0 0-0.1-0.01-0.29-0.01-0.22 0-0.54 0.01-0.93 0.04-0.21 0.02-0.45 0.05-0.69 0.09-0.25 0.04-0.5 0.09-0.77 0.15-0.14 0.04-0.29 0.08-0.43 0.12-0.34 0.1-0.69 0.23-1.01 0.39-0.17 0.08-0.34 0.18-0.5 0.29-0.07 0.05-0.15 0.09-0.21 0.14-0.01 0-0.01 0.01-0.02 0.02-0.13 0.09-0.25 0.2-0.37 0.31 0 0-0.19 2.09-0.49 2.64v2.34l-1.91 2.09v17.94l-1.41 3.94s-0.8 0.61 0.79 3.81c1.6 3.2 2.9 8.05 2.9 8.05s0.55 1.42-0.13 3.88c-0.04 0.13-0.07 0.28-0.1 0.43-0.06 0.31-0.11 0.67-0.16 1.07-0.02 0.15-0.03 0.3-0.05 0.46 0 0.05-0.01 0.09-0.01 0.14-0.05 0.55-0.08 1.14-0.1 1.75-0.02 0.44-0.03 0.9-0.04 1.34-0.03 2.2 0.03 4.15 0.03 4.15s-0.1 0.39-0.27 1.12c-0.02 0.08-0.04 0.15-0.06 0.23-0.07 0.3-0.15 0.63-0.24 1.02-0.01 0.03-0.02 0.06-0.02 0.1-0.02 0.06-0.04 0.12-0.05 0.19-0.01 0.04-0.02 0.08-0.03 0.13v0.01c-0.01 0.02-0.01 0.03-0.02 0.05-0.02 0.08-0.04 0.17-0.06 0.26-0.08 0.36-0.17 0.74-0.27 1.15v0.02l-0.01 0.01c-0.03 0.15-0.07 0.31-0.1 0.47-0.01 0.02-0.01 0.05-0.02 0.07-0.12 0.5-0.24 1.05-0.37 1.62-0.01 0.07-0.03 0.13-0.05 0.2-0.04 0.21-0.09 0.43-0.15 0.66-0.19 0.87-0.4 1.82-0.62 2.82-0.22 1.03-0.45 2.13-0.7 3.27-0.06 0.28-0.11 0.57-0.17 0.85-0.18 0.86-0.36 1.74-0.54 2.65-0.04 0.21-0.03 4.35-0.01 6.97 0.01 1.36 0.47 2.66 1.32 3.72 1.02 1.28 2.29 2.95 2.51 3.64 0.02 0.07 0.04 0.16 0.08 0.26 0.01 0.05 0.03 0.1 0.05 0.16 0.03 0.11 0.08 0.24 0.12 0.38 0.07 0.21 0.16 0.44 0.27 0.69 0.03 0.08 0.07 0.17 0.11 0.25 0.12 0.27 0.27 0.54 0.44 0.82 0.11 0.18 0.23 0.37 0.37 0.56 0.69 0.95 1.7 1.9 3.2 2.55 0.15 0.07 0.3 0.13 0.46 0.19 0.34 0.13 0.71 0.24 1.1 0.33 0.15 0.05 0.32 0.08 0.49 0.11 0.36 0.08 0.74 0.13 1.14 0.17 0.23 0.02 0.48 0.04 0.74 0.05 0.22 0.01 0.45 0.02 0.68 0.02 0.32 0 0.66-0.01 1.01-0.03 0 0 4.24-0.06 4.85 0 0.53 0.05 4.83 1.36 8.17 1.47 0.08 0.01 0.16 0.01 0.24 0.01 0.19 0 0.38-0.01 0.57-0.03 0.54-0.04 1.08-0.14 1.6-0.3 0.44-0.14 1.06-0.32 1.85-0.51 0.13-0.03 0.27-0.07 0.41-0.1 0.8-0.2 1.77-0.41 2.89-0.62 2.05-0.38 4.64-0.76 7.77-1.04 0.3-0.03 0.61-0.05 0.92-0.08 0.31-0.02 0.63-0.05 0.95-0.07 2.26-0.16 4.77-0.26 7.52-0.27h1.37c4.99 0 8.79 0.11 11.62 0.26 0.47 0.02 0.91 0.05 1.32 0.08 0.26 0.01 0.51 0.02 0.75 0.04 0.39 0.03 0.75 0.06 1.09 0.09 0.21 0.01 0.41 0.02 0.61 0.04 0.47 0.04 0.89 0.08 1.25 0.13 0.14 0.01 0.28 0.02 0.41 0.04 0.23 0.02 0.44 0.05 0.62 0.07 0.19 0.03 0.35 0.05 0.48 0.07 0.14 0.02 0.26 0.03 0.35 0.05 0.24 0.04 0.35 0.06 0.35 0.06l19.8 3.62s0.16 0.12 0.94 0.46c0.1 0.04 0.2 0.09 0.32 0.13 0.53 0.22 1.28 0.51 2.31 0.88 0.81 0.29 1.8 0.63 3 1.04 0.69 0.22 1.44 0.47 2.28 0.74 0.26 0.09 0.53 0.17 0.8 0.26 0.34 0.11 0.69 0.22 1.05 0.33 0.77 0.24 1.59 0.5 2.46 0.77 0.48 0.15 0.98 0.3 1.5 0.45 3.37 1.03 7.51 2.26 12.59 3.7 1.1 0.31 2.24 0.64 3.44 0.98 0.31 0.09 0.62 0.17 0.94 0.26h0.01c1.7 0.48 3.48 0.98 5.36 1.5l-0.03 0.03s3.61 0.79 7.75 0.68c1.61-0.05 3.29-0.23 4.88-0.65 0 0 3.39-1.38 4.67-3.69 0 0 0.18-1.91 4.73-5.78 4.56-3.87 5.11-9.83 5.11-9.83l7.7-8.99c0.83-0.96 1.76-1.82 2.75-2.61 0.31-0.25 0.63-0.49 0.95-0.72l0.33-0.24c0.68-0.47 1.32-1.11 1.48-1.89 0.16-0.77 0.05-1.16-0.12-1.35m2.12 1.77c-0.24 1.17-1.01 2.23-2.28 3.13-0.07 0.04-0.13 0.09-0.2 0.13-0.03 0.03-0.07 0.05-0.11 0.08-0.01 0.01-0.01 0.02-0.02 0.02-0.25 0.18-0.56 0.41-0.85 0.65-0.01 0-0.02 0.01-0.03 0.02-0.98 0.78-1.79 1.54-2.47 2.34l-7.31 8.53c-0.31 1.84-1.5 6.92-5.72 10.52-2.23 1.89-3.25 3.2-3.71 3.93 0 0 0 0.01-0.01 0.01-0.43 0.78-0.99 1.49-1.6 2.1-2.51 2.58-6.01 3.83-6.28 3.92l-0.02 0.01c-0.67 0.04-1.35 0.13-1.96 0.24-0.72 0.13-1.46 0.21-2.18 0.26-1.29 0.09-2.57 0.05-3.75-0.04-0.08-0.01-0.15-0.01-0.22-0.02-1.15-0.1-2.19-0.26-3.04-0.42-1.51-0.27-2.47-0.55-2.47-0.55l-0.27-0.08c-1.26-0.35-2.48-0.69-3.66-1.02-0.02-0.01-0.05-0.01-0.07-0.02-0.32-0.09-0.64-0.18-0.95-0.27l-1.74-0.49-1.71-0.49c-4.52-1.28-8.76-2.53-12.62-3.7l-0.38-0.12c-0.39-0.11-0.77-0.23-1.14-0.34l-0.39-0.13c-0.73-0.22-1.42-0.44-2.08-0.65-0.34-0.1-0.7-0.21-1.05-0.32-0.28-0.09-0.54-0.18-0.79-0.26-0.86-0.27-1.62-0.53-2.32-0.76-1.21-0.4-2.21-0.75-3.04-1.05-0.96-0.35-1.76-0.65-2.38-0.9-0.08-0.03-0.16-0.07-0.23-0.1l-0.09-0.04c-0.02 0-0.03-0.01-0.05-0.02-0.36-0.15-0.63-0.28-0.83-0.38l-19.47-3.57c-0.01 0-0.03 0-0.05-0.01-0.03 0-4.56-0.88-18.43-0.88h-1.36c-12.53 0.06-19.79 2-21.71 2.6-0.93 0.28-1.86 0.42-2.78 0.42-0.1 0-0.2 0-0.3-0.01-2.75-0.09-5.9-0.88-7.6-1.3-0.29-0.07-0.61-0.15-0.75-0.18-0.1-0.01-0.42-0.02-1.29-0.02-1.29 0-2.96 0.02-3.25 0.03-0.37 0.02-0.73 0.03-1.08 0.03-4.02 0-9.22-1.36-11.15-7.82l-0.04-0.12c-0.06-0.12-0.42-0.81-2.16-3-1.13-1.41-1.76-3.18-1.77-4.99-0.05-6.87 0.01-7.17 0.05-7.37 1.71-8.55 3.35-15.29 3.71-16.73-0.05-1.48-0.18-7.2 0.51-9.67 0.41-1.53 0.22-2.44 0.17-2.62-0.03-0.08-0.03-0.08-0.06-0.18-0.01-0.05-1.26-4.7-2.74-7.67-1.53-3.06-1.39-4.77-0.78-5.72l1.18-3.29v-17.59c0-0.51 0.19-1 0.53-1.37l1.38-1.51v-1.55c0-0.31 0.07-0.61 0.2-0.89 0.1-0.31 0.24-1.27 0.3-1.94 0.04-0.48 0.25-0.93 0.6-1.27 1.98-1.92 5.11-2.13 6.36-2.13 0.26 0 0.4 0.01 0.4 0.01 0.04 0 0.09 0.01 0.13 0.01 4.25 0.5 7.05 2.84 7.16 2.93 0.53 0.45 0.79 1.12 0.71 1.8-0.24 2.09-1.77 4.23-2.59 5.25-0.01 0.02-0.01 0.03-0.01 0.05 0 0.07-0.01 0.14-0.02 0.21-0.02 0.08-0.03 0.15-0.04 0.21-0.02 0.14-0.05 0.24-0.07 0.31-0.16 0.55-0.46 1.01-0.91 1.35-0.03 0.03-0.07 0.06-0.11 0.08-0.04 0.03-0.11 0.07-0.19 0.12l-0.03 0.02c-0.1 0.06-0.19 0.11-0.42 0.36-0.52 0.57-1.76 3.21-2.66 5.47v8.06l1.34 2.85c0.1 0.2 0.16 0.43 0.18 0.66 0.35 3.35 6.71 10.05 10.63 13.49 0.04 0.03 0.07 0.06 0.1 0.09l0.01 0.01c0.31 0.31 0.59 0.53 0.81 0.67 0.16 0.1 0.29 0.17 0.4 0.21l2.21-2.82c-0.08-1.9-0.28-6.5-0.28-7.39 0-1.41 0.83-3.17 1.08-3.68 0.14-0.28 0.35-0.52 0.6-0.71 1.76-1.33 5.61-8.08 7.92-12.7l0.06-3.89c0-0.61 0.28-1.18 0.75-1.56 1.59-1.28 2.11-3.6 2.11-3.63 0.1-0.44 0.34-0.85 0.69-1.15 1.92-1.6 4.98-1.84 6.63-1.84 0.44 0 0.71 0.02 0.71 0.02 4.38 0.23 6.75 3.63 6.85 3.78 0.31 0.46 0.42 1.02 0.31 1.56-0.11 0.52-0.41 0.97-0.84 1.27-0.38 0.32-1.51 1.7-2.41 2.88-1.13 2.43-2.27 3.38-3.06 3.76-5.29 3.7-7.57 13.02-7.6 13.11-0.01 0.08-0.04 0.15-0.06 0.22-0.13 0.36-0.22 0.65-0.3 0.91 0 0.02-0.01 0.03-0.01 0.05-0.1 0.32-0.18 0.62-0.24 0.91-0.01 0.02-0.01 0.03-0.01 0.05-0.05 0.17-0.08 0.34-0.11 0.5l-0.01 0.06c-0.03 0.17-0.06 0.34-0.08 0.51-0.25 1.84 0 3.17 0.33 4.06 0.51-0.22 1.08-0.42 1.67-0.62 0.04-0.01 0.07-0.03 0.09-0.04 0.02 0 0.03-0.01 0.03-0.01 2.78-0.92 6.28-1.64 9.09-2.13 2.14-0.38 4.3-0.54 6.47-0.48h0.03c0.75 0.02 1.45 0.04 2.08 0.07h0.05c1.82 0.09 3.65 0.11 5.47 0.05 2.77-0.08 5.53-0.45 8.22-1.13 4.03-1.03 7.37-2.24 8.16-3.03 0.52-2.52 1.65-6.6 1.99-7.82-0.34-4.86 0.25-7.41 1.05-8.73l-0.11-7.39c-0.09-2.69-0.56-5.38-0.8-6.56-1.73-1.7-1.89-3.75-1.68-4.77 0.1-0.44 0.34-0.85 0.7-1.14l1.05-0.88-0.13-2.17c-0.01-0.29 0.03-0.57 0.13-0.84 1.01-2.68 3.92-3.55 4.25-3.64 0.18-0.05 0.36-0.08 0.55-0.08h5.72c0.13 0 0.27 0.02 0.4 0.04l0.06 0.01c0.1 0.02 0.2 0.04 0.3 0.07 4.65 0.96 5.84 4.17 5.96 4.54 0.25 0.74 0.05 1.57-0.52 2.11-0.59 0.57-1.06 1.11-1.43 1.61 0.34-0.02 0.7-0.02 1.07-0.02 0.41 0 0.68 0.01 0.68 0.01 0.15 0 0.31 0.02 0.46 0.06 0.3 0.09 0.62 0.18 0.96 0.31 0.13 0.04 0.26 0.09 0.38 0.14 0.01 0 0.02 0.01 0.03 0.01 0.16 0.07 0.31 0.13 0.48 0.22 0.14 0.07 0.27 0.14 0.4 0.21 0.02 0 0.04 0.01 0.05 0.02 0.35 0.2 0.66 0.4 0.94 0.61 0.11 0.09 0.21 0.17 0.31 0.26l0.05 0.05c0.3 0.25 0.53 0.5 0.7 0.7 0.07 0.08 0.16 0.18 0.23 0.27 0.01 0.01 0.01 0.02 0.02 0.03 0.05 0.07 0.09 0.13 0.13 0.18 0.02 0.02 0.03 0.05 0.05 0.07l0.08 0.12c0.02 0.04 0.05 0.08 0.07 0.12 0.03 0.04 0.05 0.08 0.08 0.13 0.05 0.08 0.12 0.2 0.18 0.33 0.03 0.06 0.06 0.13 0.09 0.19 0.01 0.01 0.01 0.03 0.02 0.05 0.03 0.06 0.06 0.11 0.08 0.17 0.12 0.32 0.18 0.56 0.2 0.67 0.14 0.76-0.16 1.53-0.77 2-1.9 1.45-3.1 5.06-3.37 6.21-0.22 0.95-0.8 2.07-1.17 2.73l0.05 8.45 0.83 1.18c0.88 1.27 1.32 2.74 1.29 4.27l-0.04 1.53 3.57 0.99c0.09 0.03 0.24 0.09 0.33 0.12 0.42 0.18 0.82 0.37 1.18 0.56l0.18 0.09 0.15 0.07 0.39 0.21c0.32 0.17 0.59 0.32 0.81 0.46 0.43 0.26 0.77 0.49 1.01 0.68 0.06 0.04 0.11 0.08 0.15 0.12l13.66 9.39c0.92 0.64 1.59 1.57 1.91 2.62l0.76 2.55c0.06 0.2 0.1 0.4 0.14 0.6 0.3 1.84 0.68 3.48 1.12 4.87 0 0.01 0.01 0.03 0.01 0.05 0.04 0.12 0.08 0.23 0.12 0.34 0 0.01 0.01 0.02 0.01 0.04 0.6 1.74 1.33 3.14 2.17 4.15 0.01 0.01 0.02 0.02 0.02 0.03 0.08 0.09 0.15 0.17 0.23 0.25 0.01 0.02 0.02 0.03 0.03 0.04l0.17 0.17c0.06 0.07 0.13 0.14 0.2 0.19l0.05 0.05 0.09 0.08 0.02 0.02c0.02 0.01 0.03 0.02 0.04 0.03 0.15 0.13 0.29 0.24 0.43 0.34 0.02 0.01 0.04 0.03 0.06 0.04 0.05 0.03 0.11 0.07 0.16 0.11s0.11 0.07 0.16 0.1c0.03 0.02 0.07 0.04 0.1 0.06 0.07 0.04 0.13 0.08 0.2 0.11 0.04 0.02 0.08 0.04 0.12 0.07 0.03 0.02 0.06 0.03 0.09 0.05 0.03 0.01 0.05 0.02 0.08 0.03l0.1 0.05c0.02 0.01 0.05 0.02 0.08 0.04 0.04 0.02 0.1 0.04 0.15 0.07l0.06 0.02c0.02 0.01 0.03 0.01 0.05 0.02 0.47 0.19 0.94 0.34 1.39 0.49 0.47 0.15 0.91 0.29 1.35 0.48 0.1 0.04 0.19 0.08 0.26 0.12 0.32 0.15 0.6 0.32 0.88 0.53 0.01 0.01 0.03 0.02 0.04 0.02 0.56 0.45 2.4 1.02 5.71 1.19 1.56 0.08 3.03 0.63 4.27 1.58l3.65 2.82c0.08 0.07 0.16 0.14 0.24 0.22 0.06 0.06 0.11 0.12 0.16 0.17 0.03 0.02 0.06 0.05 0.09 0.07 0.1 0.1 0.19 0.17 0.3 0.24 0.07 0.04 0.13 0.06 0.16 0.07 0.66-0.27 3.71-0.88 6.15-1.34 0.66-0.12 1.25-0.18 1.82-0.18 0.27 0 0.56 0.01 0.85 0.04 0.51 0.06 0.96 0.15 1.38 0.28 0.14 0.04 0.28 0.08 0.41 0.13 1 0.36 1.89 0.93 2.64 1.69 0.71 0.72 1.16 1.46 1.43 1.99l1.76 0.88c1.29 0.65 2.13 1.93 2.22 3.35l0.09 1.55c0.01 0.09 0.02 0.16 0.04 0.23 0.01 0.04 0.02 0.06 0.02 0.07 0.07 0.07 0.13 0.14 0.18 0.21 0.58 0.75 0.74 1.76 0.48 3"/>
   </g>
   <g transform="translate(488.17,375.68)">
    <path d="m0 0c-0.1-0.59-0.47-1.11-1-1.41-0.66-0.37-1.46-0.74-2.44-1.15l-0.55-0.22-0.09-0.04c-0.67-0.26-1.29-0.49-1.84-0.68-0.21-0.07-0.43-0.11-0.65-0.11-0.67 0-1.31 0.34-1.69 0.92-3.84 6.03-5.07 12.14-3.66 18.16 0.01 0.03 0.02 0.06 0.02 0.09 0.42 1.77 1.08 3.53 1.98 5.24 0.35 0.68 1.04 1.08 1.77 1.08 0.18 0 0.36-0.02 0.54-0.07 0.91-0.26 1.51-1.11 1.46-2.05-0.59-9.49 3.3-15.41 5.68-18.1 0.4-0.45 0.57-1.06 0.47-1.66"/>
   </g>
   <g transform="translate(486.2,376.02)">
    <path d="m0 0c-0.61-0.34-1.36-0.69-2.23-1.05l-0.41-0.17c-0.07-0.03-0.13-0.05-0.2-0.08-0.64-0.25-1.24-0.47-1.76-0.65-4.11 6.44-4.47 12.14-3.38 16.7v0.01c0.42 1.78 1.07 3.38 1.8 4.78-0.63-10.12 3.51-16.52 6.18-19.54"/>
    <path d="m0 0c-0.61-0.34-1.36-0.69-2.23-1.05l-0.41-0.17c-0.07-0.03-0.13-0.05-0.2-0.08-0.64-0.25-1.24-0.47-1.76-0.65-4.11 6.44-4.47 12.14-3.38 16.7v0.01c0.42 1.78 1.07 3.38 1.8 4.78-0.63-10.12 3.51-16.52 6.18-19.54" fill="#fff"/>
   </g>
   <g transform="translate(483.36,374.72)">
    <path d="m0 0c-0.64-0.25-1.24-0.47-1.76-0.65-4.11 6.44-4.47 12.14-3.38 16.7-0.04-1.54 0.07-3.17 0.41-4.84l1.56-7.7 0.24 4.48c0.6-2.88 1.53-6.03 2.93-7.99" fill="#d1cfcf"/>
   </g>
  </g>
 </g>
</svg>
